<svg xmlns="http://www.w3.org/2000/svg" width="608" viewBox="0 0 456 127.5" height="170" version="1.0"><path d="M39.538 101.407v-5.469h3.531c1.145 0 2.094-.21 2.844-.64.758-.438 1.332-1.157 1.719-2.157.394-1 .594-2.32.594-3.969V36.797c0-1.851-.274-3.242-.813-4.171-.531-.938-1.195-1.563-1.984-1.875a6.697 6.697 0 0 0-2.563-.485h-3.328v-5.484h28.656c8.938 0 15.711 1.469 20.329 4.406 4.613 2.93 6.921 7.684 6.921 14.266 0 3.218-.609 5.976-1.828 8.265-1.21 2.293-2.82 4.137-4.828 5.532a25.106 25.106 0 0 1-6.547 3.265v.547c3.145.574 5.914 1.649 8.313 3.219 2.406 1.574 4.285 3.703 5.64 6.39 1.364 2.68 2.047 5.95 2.047 9.813 0 7.012-2.242 12.25-6.718 15.719-4.47 3.468-11.32 5.203-20.547 5.203Zm30.36-6.328c4.007 0 7.015-1.11 9.015-3.328 2.008-2.22 3.016-6.082 3.016-11.594 0-3.57-.414-6.52-1.235-8.844-.824-2.332-2.093-4.066-3.812-5.203-1.719-1.145-4.012-1.719-6.875-1.719h-6.64V95.08Zm-2.36-36.922c2.79 0 5.063-.477 6.813-1.438 1.758-.968 3.066-2.472 3.922-4.515.863-2.04 1.296-4.707 1.296-8 0-5-1.023-8.43-3.062-10.297-2.043-1.863-5.102-2.797-9.172-2.797h-3.969v27.047Zm0 0" fill="#0d6efd"/><path d="M7.168 101.407v-5.469h3.641c.863 0 1.688-.176 2.469-.531.789-.363 1.414-1.008 1.875-1.938.469-.937.703-2.222.703-3.86V36.908c0-1.781-.234-3.133-.703-4.063-.461-.937-1.086-1.597-1.875-1.984a5.411 5.411 0 0 0-2.469-.594H7.17v-5.484h32.734v5.484h-3.766c-1 0-1.875.2-2.625.594-.75.387-1.344 1.047-1.781 1.984-.43.93-.64 2.32-.64 4.172v52.485c0 1.574.234 2.843.702 3.812.47.961 1.079 1.637 1.829 2.031.75.399 1.585.594 2.515.594h3.766v5.469ZM114.336 27.012c.395 0 .711.148.953.437.25.281.375.621.375 1.016-.668 7.843-1.156 15.132-1.468 21.859-.086 3.375-.125 5.86-.125 7.453h-.203c-.22 0-.375.024-.47.063l-.062.468h.125c-.136.22-.382.399-.734.532.406.18.852.265 1.344.265v1.922h-.344l-.266.14-.203.063-.125.125v.266a.832.832 0 0 0-.062.344c0 .261.02.48.062.656l.266-.203.14-.063.329-.203c.039-.039.062-.148.062-.328l.063-.062h.078c-.055.437-.078 1.39-.078 2.859-.086-.094-.196-.094-.329 0 0 .18.02.266.063.266l.078.062v.063h.125v-.063h.063v2.453c0-.176-.09-.328-.266-.453h-.531c0 .125.02.188.062.188v.203l.078.062v.078c.176.043.395.016.657-.078v4.656c0 .887-.446 1.329-1.329 1.329l-9.562.203c-.398 0-.73-.13-1-.391a1.358 1.358 0 0 1-.406-1c.18-9.57.402-16.75.672-21.531.27-5.758.515-10.035.734-12.828.039.043.11.062.203.062l.063-.328c-.043-.039-.11-.062-.204-.062l.594-8.985c.051-.832.52-1.25 1.406-1.25Zm-6.78 1.984c.081-.133.19-.203.327-.203.352 0 .598.156.735.469.132.312.265.492.39.53.094-.081.14-.238.14-.468-.093-.125-.007-.234.266-.328h.797c0-.176-.09-.285-.265-.328-.274.043-.43.043-.47 0-.042-.04-.132-.063-.265-.063l-.328.125c-.137.137-.226.203-.265.203-.137 0-.274-.066-.407-.203l-.328-.125h-.937c.05.125.03.235-.063.328h-.39c-.137-.218-.204-.285-.204-.203 0-.039-.046-.02-.14.063l-.125.265h-.266s-.07-.062-.203-.187c-.043-.05-.11-.14-.203-.266-.18 0-.313-.008-.406-.031a.633.633 0 0 0-.188-.047c0 .055-.043.121-.125.203-.094.043-.14.11-.14.203 0 .262.046.438.14.532.125.136.164.422.125.859l-.203.61-.187.656c0 .093.039.183.125.265.093.094.14.184.14.266-.094 0-.14.023-.14.062-.137.137-.204.227-.204.266.176.055.223.211.141.469-.137.136-.203.273-.203.406 0 .438.02.766.062.984l.141.735c0 .094-.07.183-.203.265h.14l.063.079a1.62 1.62 0 0 1 .734-.204v-.609c-.136-.039-.25-.14-.343-.297-.086-.156-.106-.273-.063-.36l.594-.202.469-.203c-.137-.083-.203-.145-.203-.188 0-.227.175-.344.53-.344-.085-.082-.124-.144-.124-.187l-.063-.14.39-.391c0-.094-.042-.18-.124-.266l-.14-.266c.175-.176.35-.265.53-.265l.672-.141c-.449 0-.671-.086-.671-.266 0-.082.086-.18.265-.296.176-.114.375-.172.594-.172-.18-.125-.219-.274-.125-.453-.043 0-.11-.032-.203-.094a.314.314 0 0 1-.125-.25c0-.125.148-.254.453-.39.094-.095.094-.161 0-.204 0-.094.023-.16.078-.203Zm.124 1.797c0 .043.047.062.14.062.352 0 .571-.039.657-.125l.078-.14v-.188c0-.133.02-.223.063-.265-.18 0-.266.042-.266.125-.094.18-.14.289-.14.328-.126.18-.305.246-.532.203Zm-2.453 6.781c-.18-.219-.246-.414-.203-.594 0-.226.11-.383.328-.468.133 0 .289-.086.469-.266-.043-.27-.22-.406-.532-.406a1.956 1.956 0 0 1-.796 0 .575.575 0 0 1-.141.375c-.086.105-.148.183-.188.234.133.086.223.172.266.266.04.086.02.195-.062.328l-.079.39.079.532c-.094.18-.141.312-.141.406-.137.137-.137.246 0 .328 0 .043.008.078.031.11.02.023.055.054.11.093.039 0 .101.043.187.125l-.328 4.531c-.313.18-.422.266-.328.266.082 0 .191.063.328.188-.043.136-.152.226-.328.265l-.063.61c.258.125.348.214.266.265l-.203.188.328.265-.203 2.86c-.18.136-.266.273-.266.406 0 .086.086.215.266.39 0 0 .008.016.031.047a.357.357 0 0 0 .047.032c0 .086-.047.164-.14.234a1.315 1.315 0 0 1-.266.156c.039.137.05.262.03.375-.022.106-.1.18-.233.219.27.18.406.355.406.531a.907.907 0 0 1-.078.375c-.043.106-.086.203-.125.297-.137.356-.266.531-.39.531.3.18.452.313.452.407l-.031.03-.031.032v-.062a1.87 1.87 0 0 0-.344.422c-.086.156-.125.28-.125.375 0 .085.023.148.078.187.082.055.125.102.125.14l-.203.126c.133.054.203.187.203.406v.531l-.031.11a3.235 3.235 0 0 0-.094.359.2.2 0 0 1-.047.125.286.286 0 0 0-.031.14l.203.391a.45.45 0 0 1 .14.328c0 .137-.046.25-.14.344-.137.18-.203.309-.203.39 0 .094.023.141.078.141v.125h.39c-.085 0-.124-.066-.124-.203-.055-.039-.078-.101-.078-.187.226-.133.406-.203.53-.203-.085-.133-.171-.368-.265-.704a3.577 3.577 0 0 1-.125-.89c0-.094.04-.18.125-.266.094-.094.14-.406.14-.937l.126-.532c.133-.125.133-.21 0-.265-.043-.04-.016-.172.078-.39h.266c-.137-.571-.204-.927-.204-1.063 0-.176.04-.375.125-.594.094-.227.18-.41.266-.547h-.328v.078h-.328c0-.05-.047-.078-.14-.078l.53-.531c.176-.176.266-.305.266-.39l-.125-.595c-.137-.312-.137-.601 0-.875h.531c-.355 0-.53-.109-.53-.328 0-.133.085-.379.265-.734.175-.3.265-.567.265-.797l-.062-.656c-.055-.051-.078-.14-.078-.266a1.37 1.37 0 0 1-.125-.61l-.063-.327c0-.082.04-.192.125-.328.133-.446.18-.645.14-.594 0-.094.04-.317.126-.672l.062-.266c0-.039-.043-.195-.125-.468-.136-.395-.136-.633 0-.72.04-.093.13-.179.266-.265.039-.176.062-.488.062-.937 0-.446.11-.711.329-.797-.356-.219-.399-.414-.125-.594l-.204-.344c.094-.125.07-.343-.062-.656Zm6.516.328-.204.203h.391Zm1.187.594.469-.266-.406-.125-.266.266Zm.875 5.86c-.055 0-.078-.024-.078-.079h-.125l-.14.078-.032.032-.031.03-.031.032c-.024.023-.059.031-.11.031l.281.063c.04.054.094.07.157.047.07-.032.11-.067.11-.11Zm-1.14 2.187a.905.905 0 0 0-.657-.266c0 .18.063.336.188.469Zm-.594 1.922v-.188h-.266v.188Zm-1.922.406.062-.406c-.273 0-.449.136-.53.406Zm2.25.469-.203-.203h-.453l-.079.265c0 .219.157.328.47.328l.062-.062c.05-.04.086-.07.11-.094a.2.2 0 0 0 .03-.11Zm-1.328.593.14-.062.063-.078c.176-.125.265-.235.265-.328.04-.133-.07-.203-.328-.203l-.078.14v.203Zm-.594 1.063-.266-.14-.14.53.343.282.329-.203c.175-.094.265-.16.265-.203 0-.04-.039-.083-.11-.125-.062-.051-.116-.079-.155-.079Zm1.86 1.203v-.203h-.407v.203Zm-.673.531c-.043 0-.062-.047-.062-.14h-.469v.328h.531Zm.735 1.594c-.18-.176-.356-.266-.531-.266-.18.043-.266.172-.266.391h.266c.039.043.128.063.265.063Zm1.265.719c-.085-.258-.261-.348-.53-.266-.138.137-.157.203-.063.203v.203Zm-2 .797c-.085.054-.214.09-.39.109-.18.023-.375.074-.594.156v.266s.008.016.031.047c.02.023.032.031.032.031h.125l.078.063h.593v-.329c.258 0 .438-.023.532-.078a.27.27 0 0 0-.063-.187l-.078-.14v-.063l.078-.328-.875-.079c0 .313.024.493.078.532Zm-.796.797c0 .054-.09.078-.266.078l.078-.078c-.094-.083-.25-.125-.469-.125l-.14.328h.14s.008.011.032.03c.02.024.03.032.03.032.04 0 .11.047.204.14l.125-.202.14.062c0 .094.04.14.126.14l.468-.062c0-.226-.156-.343-.468-.343Zm-.266.875v.062l.078.063h.531c-.136-.176-.382-.266-.734-.266.082.055.102.101.062.14Zm-6.969.125c-.219.312-.328.43-.328.343-.137.125-.203.235-.203.328l-.063 2.25c0-.039.04-.238.125-.593 0-.258.008-.43.032-.516.02-.094.03-.164.03-.219 0-.039.048-.191.142-.453.132-.133.203-.25.203-.344Zm8.172.343.063.063.062.125.14.078c0 .043.02.062.063.062.04 0 .063-.02.063-.062l.14-.14a.34.34 0 0 0-.062-.204s-.028-.008-.078-.031c-.043-.02-.063-.05-.063-.094h-.125l-.078-.14h-.453l-.266.203.266.203h.125l.062-.063Zm-1.328.125v.203l.39-.14-.062-.266Zm3.594.203v.797l-.14-.14-.126-.063v-.062c.082 0 .125-.067.125-.203v-.329Zm-3.063.47c-.094 0-.23.089-.406.265l.203.187a.675.675 0 0 0 .469-.187c.039-.176-.047-.266-.266-.266Zm-1.531 1.062c.039.18.148.265.328.265.094 0 .14-.023.14-.078h.126l.14-.062.063-.391-.203-.14c-.086 0-.149-.02-.188-.063-.137 0-.203-.067-.203-.203h-.406l-.125.062v.078l-.14.063-.063.062c.133.137.242.204.328.204Zm2.328-.266-1.203-.14v.328Zm-2.922 1.328c.133.125.313.188.531.188l.204-.453h-.61Zm2.781.328c.176-.133.266-.27.266-.406-.086-.082-.234-.125-.453-.125h-.078c-.219.137-.328.246-.328.328 0 .137.066.203.203.203Zm1.407-.203c-.055-.039-.188-.062-.407-.062-.218.218-.289.398-.203.53.27.044.473-.003.61-.14Zm-10.235.735c.176 0 .266-.047.266-.141 0-.258-.023-.39-.063-.39a.715.715 0 0 0-.203.53Zm6.578.734a.27.27 0 0 0 .204-.078l.125-.063.14-.125-.672-.14.063.203c0 .136.047.203.14.203Zm-.406-.266-.797.125.797.203Zm1.797.469h.328l.078-.281h-.343Zm-.797.797-.031.031-.031.031c.082.137.3.204.656.204.094 0 .207-.086.344-.266h.53l.063-.078v-.063l.063-.125-.594-.14c-.043.043-.062.109-.062.203h-.078l-.063-.063h-.266c-.18 0-.289.043-.328.125-.043 0-.078.028-.11.078-.022.043-.03.063-.03.063Zm3.063.062.125.063v.062h.14l.125.079c.352 0 .532-.133.532-.407l-.454-.062Zm-4.453-.203-.266.203a.63.63 0 0 0 .469.204l.125-.079.14-.062.188-.063Zm3.187.203h.39v-.203h-.39Zm-1.922.329c-.094.093-.14.164-.14.203l.734.062v-.265l-.531-.125c0 .085-.024.125-.063.125Zm2.922-.063v-.062h-.469v.39l.532-.062v-.203Zm-1.14.86-.126-.47c-.355.137-.601.274-.734.407.04.043.176.062.406.062Zm-3.454 0h.61v-.204h-.61Zm3.063.406v.187h.39v-.187Zm1.531.593c.258-.132.258-.27 0-.406l-.078.078h-.188c0 .125.04.188.125.188Zm-4.187.204c.132.085.175.148.125.187h.406c.133-.082.203-.145.203-.187h.062c0-.051.02-.086.063-.11l.062-.031c-.085 0-.125-.02-.125-.063h-.328c-.312-.093-.492-.16-.53-.203 0 .094-.028.164-.08.203v.125l.08.079Zm3.578.453c.175.093.351.14.53.14.177 0 .29-.02.345-.062h.062v-.531a.414.414 0 0 1-.328-.141.267.267 0 0 1-.172.062.242.242 0 0 0-.172.079l-.062-.141-.203.062c-.086.094-.086.274 0 .532Zm-9.422 0-.266.203.188.203Zm9.094.343.203.125.265-.328-.265-.062Zm-1.391.532c.219 0 .437-.04.656-.125.227-.094.363-.227.406-.407h-.328c-.355 0-.601.09-.734.266Zm.469.062c-.137.18-.137.309 0 .39l-.078.204.078.062v.141l.328.063.203-.735a1.271 1.271 0 0 0-.531-.125Zm.984.797c.05.043.164.063.344.063l.187.078h.14c.134 0 .235-.02.298-.063.062-.05.094-.144.094-.281h-.594a1.08 1.08 0 0 1-.469-.125l-.125.328Zm-2.312-.062h-.61v.265h.61Zm3.25.593c-.18 0-.344.09-.5.266-.157.18-.258.289-.297.328l.53.14c.395-.132.661-.378.798-.734Zm-.938.203h-.531c0 .043-.024.075-.063.094-.043.024-.062.031-.062.031l-.14.266a.48.48 0 0 0-.266.266v.265c.27 0 .406.028.406.078l-.063.266c0 .18.02.29.063.328l.39-.14.204-.188.062-.734-.328-.063c.176 0 .285-.023.328-.078Zm.469 1.188c.133 0 .332-.086.594-.266-.086-.082-.325-.125-.72-.125Zm1-.125h-.469l-.203.39h.531c.094-.082.14-.171.14-.265ZM150.878 27.87c.394 0 .71.15.953.438.25.282.375.621.375 1.016-.711 7.406-1.133 14.277-1.266 20.61-.043.667-.062 1.663-.062 2.984l-.063 3h-.344c-.261 0-.414.023-.453.062-.054.043-.344.063-.875.063l.14.14-.14.125h.14l.266-.062c.082.043.301.062.657.062h.468c.094 0 .141.024.141.063v.14h-.344l.14.063-.14.14h.344c-.055 3.368-.078 8.391-.078 15.079 0 .93-.445 1.39-1.328 1.39l-8.766.204c-.625 0-1.07-.286-1.328-.86l-1-2.797h.063v-.062h-.125l-5.25-13.953a5.24 5.24 0 0 0 .796-.47l-.328.063-.14-.062-.328.062-.141.079-2.516-6.657-.468 23.532c-.094.886-.559 1.328-1.391 1.328h-8.969c-.406 0-.726-.13-.969-.391a1.413 1.413 0 0 1-.375-1c.094-2.3.274-5.582.532-9.844l.078-1.593c.488-8.32.863-14.235 1.125-17.735l1.203-13.89c.039-.801.484-1.223 1.328-1.266l6.375-.203c1.414-.082 2.633.277 3.656 1.078 1.02.793 1.836 1.898 2.453 3.312l.063.063 5.516 14.422 1.078-17.61c0-.843.46-1.265 1.39-1.265Zm-24.329 9.298c-.085 0-.171.07-.265.203l.406.203c0-.176-.047-.312-.14-.406Zm-.796 3.469v-.204h-.391v.204Zm1.062.328c.176-.133.266-.29.266-.47h-.39v.267c.081.093.124.164.124.203Zm3.125-.063c-.219-.226-.375-.363-.469-.406 0 .18.047.355.14.531l.204-.062Zm-1.531.453c.133 0 .312-.062.531-.187l.078-.14h-1.203v-.204h-.531v.266h.531v-.063l.14.14.266.126c0 .043.063.062.188.062Zm1 .078.14-.203-.53-.14v.203Zm.469.063a.715.715 0 0 0 .53-.203c-.179-.133-.335-.203-.468-.203-.086.093-.105.164-.062.203Zm-2.188.062c.125.22.32.266.594.141-.137-.094-.336-.14-.594-.14Zm-1 3.516v.266h.531v-.266Zm2.86.875h.656v-.266h-.657Zm.921 1.86c0-.133-.152-.27-.453-.407.082.356.192.578.328.672Zm4.72-.266c0 .219-.04.367-.11.437-.063.063-.246.094-.547.094l.125.203.875-.61Zm-5.58.531v-.406h-.468v.406Zm4.58.531V48.2h-.33v.406Zm-6.235-.203c.175.219.316.32.422.297.113-.02.191-.117.234-.297Zm7.11.328v-.125l-.142-.14-.062.203.125.265h.078Zm-4.33-.125c.407.137.72.137.938 0Zm-1.452.532v.265h.656v-.265Zm-2.063.656c0-.082-.047-.211-.14-.39v-.141c-.305 0-.524.07-.657.203v.328Zm8.11 0h.265v-.266h-.265Zm-.407.61v-.204h-.468v.203Zm5.844 0 .14-.204h-.14l-.062.125Zm-13.953.53c.133-.093.203-.16.203-.203 0-.176-.199-.285-.594-.328v.39Zm.875.063v-.266h-.469v.266Zm7.844.531a2.415 2.415 0 0 1-.14-.797.671.671 0 0 1-.11.094c-.024.023-.031.059-.031.11l-.188.187-.203.078-.063.125c.082.094.125.164.125.203l.141.063Zm-2.594.328s-.016-.008-.047-.031c-.023-.02-.031-.031-.031-.031-.086 0-.172-.04-.266-.125-.086 0-.125.09-.125.265v.125h.47Zm-6.047.078c-.23.125-.344.278-.344.454h.672Zm17.266 0v.188h.14v-.188Zm-15.61.594v.531h.391v-.53Zm-3.062.063v.468h.531v-.468Zm10.172 1.062c0 .274.195.406.594.406v-.406Zm2.187.86c-.437-.22-.746-.329-.922-.329 0 .22.176.375.532.47.039-.04.11-.063.203-.063Zm-2.39.468.265-.39-.39-.078-.203.343Zm.203-.265.062.203.797-.203-.125-.203Zm6.984.14.188-.265-.266-.078-.187.203Zm-4.656.188-.063-.266-.53.14.062.204Zm-13.422.406c.258 0 .477-.047.656-.14l-.125-.391c-.355.18-.53.355-.53.531Zm10.36-.203c-.18-.176-.336-.285-.47-.328-.042.136-.195.226-.452.265.039.043.101.063.187.063l.14.062.266.141.203-.062Zm-8.907.14v.266l.531-.203-.125-.266Zm.797.922c-.398-.218-.594-.328-.594-.328l-.203-.14-.656-.125.125.593Zm8.984.672c-.054-.27-.187-.406-.406-.406-.043.043-.043.11 0 .203 0 0 .008.012.031.031.02.024.032.032.032.032Zm6.579-.078c.082.23.171.367.265.406.082-.039.102-.148.063-.328h-.266Zm-6.516.469h.062c.04 0 .11-.04.204-.125h.062l.063-.063-.532-.14v.406Zm2.781.203-.125-.469-.203.078v.391Zm-11.422-.062v-.329h-.672v.329Zm9.11.656.328.14.125-.265-.328-.063Zm-9.375-.063v.469h.39v-.469Zm8.578.469a.258.258 0 0 0-.219.11c-.043.062-.016.117.078.156l.406-.063Zm2.781.594c-.043.043-.11.062-.203.062h-.125c0 .055.086.211.266.469l.265.328c.176-.082.305-.172.39-.265.052-.04.13-.094.235-.157.113-.07.211-.148.297-.234l-.39.062h-.141l-.125.063-.14.078c-.087-.094-.126-.16-.126-.203 0-.094-.047-.16-.14-.203Zm-1.656.265-.14-.203-.454.078.125.266Zm-10.11.204c-.261 0-.39.023-.39.062-.094.043-.14.11-.14.203l.405.266.125-.328Zm12.891.468-.187.063.062-.14h-.531c-.043.054-.133.077-.266.077.04.18.13.266.266.266l.125.125.203-.203h.594l.53-.125-.124-.203-.531.14Zm1.203.594.266-.14-.203-.391-.328.125Zm-5.047-.203c.133.043.332.043.594 0-.137-.176-.336-.266-.594-.266Zm-6.25.203v.39h.47v-.39Zm9.563.469c.27.18.582.219.937.125v-.203c0-.176-.136-.286-.406-.328l-.531.14Zm-1.781.062v-.328h-.266v.328Zm1.39.125c-.043-.082-.12-.133-.234-.156a.746.746 0 0 1-.297-.11l-.266-.062.266.469Zm3.86.938c.257.086.41.125.453.125.093-.04.129-.102.11-.188a.289.289 0 0 0-.173-.203Zm-2.532.937.266-.078-.406-.922-.266.063Zm-2.984-.937v.328h.453v-.328Zm.39.937c-.085-.093-.062-.25.063-.468l-.656.203c0 .086.086.125.265.125 0 .043.04.062.125.062Zm4.391 1.063a.361.361 0 0 0 .266.125l.531-.125c-.531-.27-.82-.492-.86-.672v-.328l.032-.031.031-.032-.062-.078-.407.14c0 .044-.109.087-.328.126l-.14.14-.203.125.468.079.407.062c.082.18.171.336.265.469Zm-2.328-.531c0-.094-.137-.208-.406-.344l.265.61Zm.922 1.25c.352-.083.555-.145.61-.188l.202-.14.125-.126.141-.078-.203-.453h-.266l-.343-.14c0 .093.046.23.14.406 0 0 .008.011.031.031.02.023.032.031.032.031v.125c.093.055.093.121 0 .203 0 .043-.059.09-.172.141a1.053 1.053 0 0 0-.297.188Zm-14.078-.985v.453h.39v-.453Zm12.36 1.328.265.125 1.453-.797c-.219.094-.461.141-.719.141-.094.086-.25.125-.469.125-.355.094-.601.184-.734.266l.14.062h.063Zm5.109-.672c0 .22-.032.356-.094.407-.063.043-.25.062-.563.062l.125.266.875-.672Zm-16.938.532c.352-.133.57-.243.656-.328a1.405 1.405 0 0 0-.656-.141Zm15.813 1.125.328.078.078-.406h-.344Zm-15.016-.188v.39h.656v-.39Zm13.75.125-.39.406.124.063c.051 0 .086.012.11.031.02.024.03.055.03.094l.595-.125Zm.797.406c-.125.18-.102.266.078.266.125 0 .21-.023.266-.078l-.079-.063c-.085 0-.171-.039-.265-.125Zm.734.532c0 .043-.07.062-.203.062h-.062l-.266.39v.079h.062l.266-.406c.176-.04.352-.04.531 0l.078-.063Zm1.203.062c-.136.086-.25.195-.343.328h-.063l.063.063c.093-.176.207-.285.343-.328h.063Zm-4.39 1.203c.082-.05.172-.14.265-.265l-.672.125h-.125l-.265.062c.176.137.176.293 0 .469.312 0 .488-.067.531-.203.133-.082.223-.145.266-.188.039-.05.039-.05 0 0ZM187.88 37.699c.802-.039 1.224-.484 1.267-1.328l.203-7.5c0-.406-.137-.738-.407-1a1.317 1.317 0 0 0-.984-.406l-29.844.609c-.843.043-1.285.484-1.328 1.328l-.406 10.031c0 .438.156.793.469 1.063.312.273.691.36 1.14.266l9.157-1.735-.391 14.235c.133-.094.266-.094.39 0v.125c0 .042-.042.062-.124.062l-.266-.125-.266 8.172h.063l-.031.031-.032.031-.265 10.641v.188c0 .312.129.593.39.843.27.242.582.36.938.36l9.031-.203c.844-.083 1.266-.524 1.266-1.329l.062-.468h-.062c-.137 0-.274-.07-.407-.22-.125-.155-.187-.28-.187-.374l.203-.39c.125-.134.188-.27.188-.407 0-.039-.063-.129-.188-.266-.137-.132-.203-.242-.203-.328 0-.093.066-.226.203-.406 0-.219-.027-.395-.078-.531-.043-.082-.063-.235-.063-.453l.141-.141c.04 0 .07-.008.094-.031.02-.02.05-.055.094-.11-.18-.082-.266-.171-.266-.265a.43.43 0 0 1-.125-.328c.258-.082.39-.192.39-.328 0-.094-.109-.227-.328-.407 0-.082.133-.144.407-.187.257-.094.32-.207.187-.344l-.187-.125a.82.82 0 0 1-.344-.062c0-.094.047-.227.14-.407l.126-.265v-.125l-.188-.078c-.094 0-.164.015-.203.046a.286.286 0 0 1-.14.032c-.087 0-.126-.047-.126-.141v-.125h.063l.031-.031.031-.047c.094-.04.227-.063.407-.063.175 0 .285-.086.328-.265l.203.265.062-.39h-.39c-.23 0-.297-.176-.203-.531a.366.366 0 0 0 0-.407l-.141-.203-.063-.265c0-.04.067-.13.204-.266.132-.133.203-.242.203-.328l-.141-.594-.203-.672.078-.203h.063l.125-.125v-.203a.926.926 0 0 0-.188-.531l.328-.125c.082 0 .172-.047.266-.141h.203l.062-1.594h-.062c-.055 0-.211-.066-.469-.203.133-.219.313-.328.531-.328l.532-19.531Zm-26.046-2.39v-.188h.406v.187Zm5.844.265v-.266h.344v.266Zm-7.438.672a1.405 1.405 0 0 0-.656-.14c-.137-.177-.094-.395.125-.657h.406l.39.266v.265Zm6.11-.594c0 .125-.024.188-.063.188h-.125l-.078.078-.266-.078v-.391h.532Zm-9.625.266v-.203h.593v.203Zm5.375-.078-.266.078-.125.125c-.23.094-.277.203-.14.328-.18.137-.31.164-.391.078a.555.555 0 0 1-.219-.062.826.826 0 0 1-.187-.141c.093-.04.226-.149.406-.328.125-.133.3-.203.531-.203h.125Zm-2.328.672v-.266l.875.125Zm2.468.921c-.312-.039-.48-.113-.5-.218-.023-.114.055-.258.235-.438h.125l.14.063h.266v.468Zm5.172-.453c0 .18-.062.328-.187.453-.18-.125-.266-.254-.266-.39h.188Zm-7.375.657v-.266h.406v.266Zm4.594.062c-.043.18-.266.246-.672.203-.086 0-.148-.02-.187-.062h-.204a1.092 1.092 0 0 0-.406-.063c.133-.27.313-.406.531-.406.094 0 .407.047.938.14Zm3.656 19.203-.14-.062.203-.125.14-.141.125.266-.328.14Zm7.5.469c-.086.094-.148.14-.187.14l-.047.032-.031.031-.125-.062v-.141Zm-7.172 2.266c0 .136-.047.312-.14.53-.086.22-.168.352-.25.391a.51.51 0 0 1 .125.344c-.043.043-.055.121-.032.235.02.105.032.18.032.218 0 .094.047.32.14.672l.188.39c0 .188-.11.345-.328.47l.14.078c0 .18.008.375.032.593.02.22.007.418-.032.594-.093.274-.031.45.188.531-.125.18-.258.266-.39.266.132.137.202.203.202.203.082 0 .125.043.125.125l-.062.078c-.043.043-.11.063-.203.063l-.47-.063-.265-.14a.301.301 0 0 1-.203-.063l.078-.734.125-1.453c.094-.364.094-.567 0-.61v-.468c.176-.22.266-.415.266-.594 0-.04-.07-.13-.203-.266a.37.37 0 0 1-.188-.203c0-.039.04-.102.125-.187l.203-.204c-.093-.093-.14-.18-.14-.265 0-.094.023-.14.078-.14l.062-.188c-.043-.094-.062-.227-.062-.407 0-.312.176-.734.531-1.265 0 .273.067.386.203.344.176.042.266.132.266.265l-.078.266Zm9.563 1.265c0 .043-.024.063-.063.063v.125h.063Zm-1.328 2.594c0 .086-.043.148-.125.187l-.266-.062v-.203c.04.054.11.078.203.078Zm-8.438 4.906c-.219.094-.281.211-.187.344 0 .18-.07.375-.203.594l-.344.062c-.219-.312-.328-.508-.328-.594-.086-.039-.125-.175-.125-.406 0-.039.039-.062.125-.062.093 0 .07-.11-.063-.328a.323.323 0 0 0 .063-.204l.062-.14.078-.797c0-.125-.027-.211-.078-.266a.712.712 0 0 1-.062-.328c-.043-.039 0-.16.125-.36.132-.195.27-.343.406-.437.039 0 .07.012.094.032a.711.711 0 0 1 .109.109l.203.062ZM224.298 27.277c.445 0 .8.137 1.062.406.27.262.406.59.406.985l-.203 7.906c-.094.844-.515 1.29-1.265 1.328l-18.266 1.922-.469 5.516 13.688-.72v6.5h.265v-6.5c.352 0 .672.138.953.407.29.262.438.57.438.922v6.906c0 .75-.375 1.196-1.125 1.328l-14.547 1.922-.344 5.516 17.75-.531c.395 0 .723.136.985.406.27.262.406.57.406.922v8.375c0 .844-.422 1.289-1.266 1.328l-27.968 1.469c-.399 0-.73-.118-1-.36-.27-.25-.407-.593-.407-1.031.094-6.562.297-13.383.61-20.469.312-6.508.863-13.843 1.656-22 .133-.8.578-1.203 1.328-1.203ZM205.36 28.73h.14v-.203h-.14Zm4.313.407c-.043.042-.055.074-.032.093.02.024.078.032.172.032-.094 0-.14-.04-.14-.125Zm1.265 1.125c.094-.083.14-.172.14-.266 0-.176-.136-.266-.405-.266-.262 0-.461.09-.594.266l-.203.266c.133-.083.203-.172.203-.266l.328-.063c.27.043.406.153.406.329v.265c0-.082.04-.172.125-.265Zm9.969-.47h-.125v.204h.125Zm-18.875.407h1.406v-.203h-1.406Zm4.797-.203h-.938v.062h-.125c-.23.094-.343.164-.343.204h.468l.063-.063h.875Zm-2.203.266h.203v-.125h-.203Zm11.031 0h-.531v.265h.531Zm-7.906.265c-.086 0-.125.11-.125.328l.265-.265c.125-.125.078-.145-.14-.063Zm4.39.203h-.265v.125h.265Zm-10.703 1.125.063.266v.14h.265c0-.05.047-.117.141-.203l.125-.14Zm8.11.938c-.22-.094-.329-.18-.329-.266v-.078l.329-.328-.266.14h-.14c-.044 0-.075.012-.094.032-.024.023-.055.031-.094.031h-.14c-.22.086-.4.262-.532.531l.14.125h.797c.04 0 .07-.008.094-.031l.031-.031h.063Zm2.265.187h.063l.062.078.063-.203h-.188Zm-3.797.469-.125-.39c-.355.124-.53.257-.53.39.124.043.21.043.265 0Zm2.922.531c0-.082-.11-.21-.328-.39l-.203.39Zm2.735.063c0-.04-.047-.102-.141-.188l-.125-.14c-.355.136-.531.273-.531.406Zm-4.454.078c-.273-.133-.476-.203-.609-.203-.219 0-.328.11-.328.328l.328.203.203.063h.063c.093 0 .14-.067.14-.204Zm2.594.531c.082.086.192.086.328 0 0-.27-.09-.426-.265-.469l-.532.125.125.344Zm-13.969-.203h-.062l-.125.063.125.062Zm12.36.594c.133 0 .203-.086.203-.266 0-.176-.11-.265-.328-.265l-.14.062h-.063l-.063.078c-.094.086-.14.172-.14.266l.078.125Zm9.906-.469h-.125v.344h.125ZM210.08 37.84h-.14v.203h.14Zm-5.39.203c-.087 0-.126.062-.126.187h.125l.078-.062c-.054 0-.078-.04-.078-.125Zm-.391 3.25-.141.14.344.063c.039-.04.039-.149 0-.328-.055 0-.121.043-.203.125Zm.328 1.328.062-.063-.328-.062v.062Zm.406 2.656h.328v-.328h-.328Zm.203.875c-.137 0-.23-.023-.281-.078l-.266-.062-.062.062c-.137.055-.203.14-.203.266 0 .23.175.343.53.343.134 0 .227-.023.282-.078Zm5.047.39h.062v-.062Zm9.5.86c.133 0 .242.027.328.078l.328.063.266-.328v-.532a.575.575 0 0 0-.235-.14.861.861 0 0 0-.296-.063l-.391.266Zm-9.172-.797.14-.062h-.14Zm-1.734.672.343.266c.083-.04.133-.117.157-.235.02-.113-.012-.191-.094-.234Zm1.734.063.266.14.14-.406h-.265Zm-3.922.468c.27-.093.27-.226 0-.406Zm-1 .391.266.266.344.078.062-.078h.125v-.328c-.18 0-.308-.04-.39-.125l-.141.062-.031.031-.032.032Zm3.188-.062.14.265h.47l-.204-.125-.266-.203Zm-4.375.203a1.091 1.091 0 0 0-.282-.125.9.9 0 0 0-.328-.078c0 .093.067.183.203.265.094.094.29.14.594.14h.203v-.202Zm4.25.797h.531a.21.21 0 0 0 .125-.204v-.265h-.531l-.063.265Zm-4.719.39c0 .055.008.09.031.11.02.023.051.011.094-.032l.203-.078-.125-.062h-.078c-.086 0-.125.023-.125.062Zm-.797 1.266c.219 0 .375-.04.469-.125-.094 0-.184-.047-.266-.14l-.078-.063h-.328c-.137.136-.203.265-.203.39Zm.922.328c-.219 0-.527-.04-.922-.125l-.203.125.203.266c.082-.22.192-.282.328-.188.27 0 .469-.023.594-.078Zm-2.844 0c-.136.055-.203.14-.203.266l.203.14.266-.062c0-.094.062-.16.187-.203l-.187-.063Zm18.063 1.797.265-.328.141-.266-.14-.469c-.044-.039-.133-.238-.266-.593Zm-15.282-.594c0-.082.133-.3.407-.656l-.266-.078h-.266a.7.7 0 0 0-.406.14l-.531.203c.133.043.254.086.36.125.113.043.19.09.234.141-.086.219-.106.371-.063.453l.594-.125Zm-1.796-.125c.132.086.25.086.343 0l-.078-.078-.125-.063-.14.063Zm2.125-.078c.05.137.109.23.171.281.063.043.16.063.297.063.04 0 .196-.047.47-.141l-.204-.203Zm-1.985.203c-.273.137-.34.246-.203.328l.063.266c.175 0 .312-.04.406-.125 0-.176-.09-.332-.266-.469Zm2.985.672h-.329c-.136 0-.203.043-.203.125 0 .094-.043.14-.125.14 0-.226-.07-.363-.203-.406h-.406c0 .094.047.14.14.14l.204.188-.469.204-.328.265c.039.043.094.063.156.063.07 0 .129.027.172.078h.531c.176 0 .461-.086.86-.266Zm-2.391.266c-.137 0-.25.078-.344.234a.839.839 0 0 0-.125.422v.328c.227.18.43.266.61.266h.187l.203-.125v-.86l-.265-.203Zm-1.063.328c-.042 0-.109.039-.203.109-.086.063-.125.117-.125.156a.865.865 0 0 0 .47 0Zm14.75.39h.797v-.187h-.797Zm-11.625.203c.094 0 .141-.066.141-.203h-.406l-.14.203Zm-3.656.063c-.219.055-.328.14-.328.266h.328c.04-.04.04-.13 0-.266Zm3.063.406c.082.043.21.063.39.063 0-.133-.09-.243-.265-.328Zm-1.938 0c-.18.18-.265.309-.265.39l.609.079.125-.266c-.086-.093-.125-.16-.125-.203Zm1.14.531-.077-.406c-.219 0-.328.09-.328.266v.265Zm1.25.125c0-.082-.042-.125-.124-.125l-.14-.14c-.087.054-.282.078-.595.078l-.265.062-.125.063.328.266c.258-.083.414-.125.469-.125Zm-1.062.672.203-.14-.53-.125v.265Zm-.453 0a1.138 1.138 0 0 0-.531-.14l.125.265c.176 0 .312-.039.406-.125Zm-.797.39c0 .056-.047.122-.14.204l.734.063c.082 0 .125-.063.125-.188Zm-.672.47a.458.458 0 0 0 .407.203l-.266-.531-.469.062Zm1.125.609c-.085-.176-.105-.289-.062-.344.039-.133.039-.222 0-.265l-.203.203c-.043 0-.063.047-.063.14v.266Zm1.329-.14c.226 0 .343-.087.343-.266h-.343Zm-3.516-.204c-.137.055-.203.121-.203.203l.406.141c0-.094.02-.16.063-.203l.062-.063Zm1.86.469v.266h.202v-.266Zm.327.14c0 .087.024.126.079.126l.062.14.469-.14c-.055 0-.078-.04-.078-.125v-.078a.381.381 0 0 0-.203.046.257.257 0 0 1-.125.032Zm1.063.594h-.39v.266h.39Zm-3.781.391c-.086.137-.063.273.062.406.227-.093.344-.226.344-.406Zm1.39.469.141.062c.082 0 .148-.02.203-.062l-.078-.328h-.125l-.031.03-.032.032h-.14v.266Zm-1.39 1.062c.176 0 .285-.02.328-.062 0-.04.008-.07.031-.094l.11-.11-.204-.124-.328.125Zm1.922-.125h-.329v.063l.266.062Zm-1.063.797a.485.485 0 0 0 .344.125v-.39c-.137 0-.25.09-.344.265Zm5.86 2.516h.53v-.125h-.53Zm2.656.078-.344.187c.133.055.203.141.203.266h.328c.094-.082.14-.145.14-.187l.063-.141-.125-.328c0 .043-.027.09-.078.14-.043.043-.105.063-.187.063Zm3.781.266h.14l.063-.141-.062-.063Zm-5.64-.141h-.407v.14h.406Zm3.046.531.266-.062c0-.04-.024-.063-.063-.063l-.125-.14Zm-3.844.14.125.126c.22-.082.266-.172.141-.266-.094 0-.14.024-.14.063h-.126Zm2.313.126a.457.457 0 0 0-.328-.125l.14.453.032-.031.031-.032c.039 0 .062-.039.062-.125.04 0 .063-.046.063-.14Zm1.266.14c-.22.086-.329.196-.329.329h.329c0-.094.023-.16.078-.204Zm-9.438.985v.406l.14-.14.266-.266Zm1.328 0c0 .136.114.203.344.203v-.125c0-.05.02-.078.062-.078Zm3.469.203.125.266h.14l-.203-.266Zm6.375.203c0 .219.11.328.328.328l.14-.203.063-.125Zm-2.328.125h-.14l-.063.203h.203Zm-2.125.406.031-.031.031-.031-.125-.14h-.14l.14.265.032-.031.03-.032Zm-5.781.735h-.532v.328h.532Zm-6.11 1.453c0-.219.063-.348.188-.39h-.86v.39Zm24.188-.125.797.125v-.188l-.672-.203Zm-19.875-.14h-.735v.265h.735Zm4.39.265v.344h.532v-.344Zm3.657.265c-.055.094-.079.274-.079.532l.079.343h.921l.141-.265c.04-.051.063-.14.063-.266l-.329-.344Zm-10.235.344h.719v-.265h-.719Zm2.922 1.39c.133-.038.242-.16.328-.359.094-.207.14-.421.14-.64 0-.258-.07-.457-.202-.594-.094 0-.274.07-.532.203.176.399.266.86.266 1.39Zm-6.64-.937c.039.137.16.196.359.172.195-.02.344-.078.437-.172Zm2.78.266h-.124v-.266h-.61v.266h.61v.266h.125Zm6.907.14c-.355 0-.594.024-.719.063l-.406.14-.328.063a.804.804 0 0 1 .25.235c.094.105.164.203.219.296.218-.132.437-.312.656-.53Zm-4.516.594a.684.684 0 0 0 .141-.39h-1.14v.593c.35 0 .663.043.937.125Zm12.172-.062h.453v-.14h-.453Zm8.438.86c0 .136-.047.202-.14.202.132 0 .269-.066.405-.203Zm-21.407.14h-.53v.265h.53ZM261.706 66.808c.133.18.203.403.203.672 0 .399-.226.75-.672 1.063l-7.297 4.781c-.273.219-.625.285-1.062.203-.45-.133-.742-.379-.875-.734-1.73-3.813-2.902-6.203-3.516-7.172v-.078a262.537 262.537 0 0 0-2.859-4.985l-1.125-1.859-3.734 1-.188 12.094c0 .886-.445 1.328-1.328 1.328h-8.172c-.406 0-.726-.129-.969-.39a1.413 1.413 0 0 1-.375-1l2.735-41.141c.039-.707.414-1.13 1.125-1.266l10.031-1.25h.078l1.86-.203c1.769-.176 3.14-.266 4.109-.266 1.957 0 3.644.18 5.062.532 2.52.53 4.442 1.886 5.766 4.062 1.332 2.168 2 4.711 2 7.625 0 2.219-.375 4.461-1.125 6.719-.75 2.125-1.969 4.054-3.656 5.781-1.024.93-1.887 1.637-2.594 2.125Zm-14.422-35.28v-.141h-.594v.14Zm-.531.468v.187h.344c0-.039.039-.101.125-.187l.062-.078h-.469Zm3.328.266c0-.051-.047-.079-.14-.079-.086 0-.126-.039-.126-.125v.329Zm-1.203.265.14-.14h-.14l-.125.14Zm-1.39.125c.093 0 .14.024.14.063 0 .054.02.078.062.078.083 0 .125-.024.125-.078v-.063Zm-1.391.328c-.274.23-.32.453-.14.672h.468v-.062c0-.176-.11-.38-.328-.61Zm7.11 0c-.044.055-.032.125.03.219.063.086.141.125.235.125.039 0 .062-.047.062-.14 0 0 .02-.008.063-.032.05-.02.078-.05.078-.094Zm-1.204.14c-.219.22-.352.376-.39.47h.062l.062.062h.063c.226-.133.344-.242.344-.328 0-.05-.047-.117-.141-.203Zm-17.203.532v-.328h-.14v.328Zm13.953-.328-.266.266.657.062.14-.203-.265-.062c0-.04-.09-.063-.266-.063Zm.922.125c0 .094.023.164.078.203l.062.125h.391v-.328Zm5.594.203v-.203h-.266v.203Zm-9.313.469-.062-.14-.204.14v.125Zm4.922.125c.082-.082.082-.125 0-.125l-.14-.14c-.087.093-.126.14-.126.14v.125Zm-2.125.266h.125v-.266h-.125Zm.922.265a1.233 1.233 0 0 1-.39.266l-.266.203h.656Zm1.469.203c-.094-.093-.32-.14-.672-.14 0 .054.031.09.093.109a.48.48 0 0 1 .172.094s.086.027.266.078h.078v-.078Zm1 .203a.311.311 0 0 0-.141.032.257.257 0 0 1-.125.03l.125.329.266-.125.14-.14Zm3.39.657c0-.176-.117-.352-.344-.532v.672Zm-3.062-.266c-.18.094-.266.184-.266.266 0 .093.086.14.266.14l.328.063a.8.8 0 0 0 0-.656Zm-8.5.266c.082.18.125.312.125.406l.14.39.266-.124-.078-.204-.063-.125v-.203c0-.093.067-.14.203-.14Zm8.906.468c-.18-.082-.313-.125-.406-.125l-.063.329.063.062h.265v-.062h.141Zm2.922.735c.125-.04.144-.196.062-.469-.273.137-.468.273-.593.406Zm.531.125c0 .054.04.12.125.203.094.094.16.14.203.14-.043-.175-.11-.265-.203-.265Zm-14.953 11.297c2.207-.301 4.078-.805 5.61-1.516 1.53-.719 2.718-1.895 3.562-3.531.707-1.5 1.062-2.63 1.062-3.39 0-.49-.09-.911-.265-1.266v-.063c-.18-.488-.688-.844-1.532-1.062l-.859-.063c-.625 0-1.273.09-1.937.266l-4.641 1.062Zm12.953-9.828c0-.094-.023-.16-.062-.204l-.266-.062v.266Zm-.062.796c.132-.132.203-.27.203-.406h-.266l-.266.14c-.093.087-.12.126-.078.126Zm.921-.14c.227 0 .344-.086.344-.266h-.344Zm4.922.672c0 .136-.043.203-.125.203.04.043.094.062.157.062a.25.25 0 0 1 .171.063l.391.062c0-.082.024-.125.078-.125.04-.039.063-.11.063-.203 0-.176-.09-.375-.266-.594v.532Zm-5.187-.141c0 .055-.043.078-.125.078l.469.125-.079-.125a.233.233 0 0 0-.187-.078Zm.265.672h.079l-.204-.203-.062.062Zm5.516 0h-.125v1.531h.125Zm-.062 2.922c0-.219.109-.414.328-.594-.219-.039-.328-.148-.328-.328.039-.094.02-.227-.063-.406v4.718a1.4 1.4 0 0 0 .266-.796l-.063-.797a2.314 2.314 0 0 1-.078-.672c0-.176.024-.285.078-.328 0-.176-.047-.395-.14-.657Zm-6.844-.125c-.137-.313-.383-.469-.735-.469Zm.531.531v.188h.594v-.188Zm-1.125.86c0-.04-.047-.11-.14-.204-.126-.082-.235-.125-.329-.125l-.125.453Zm-16.422 1a1.082 1.082 0 0 0-.265-.407c-.086-.039-.125-.129-.125-.265-.094.136-.32.246-.672.328l.531.14c.176.086.266.153.266.203Zm14.625 0c.04 0 .13.03.266.093.133.063.242.074.328.031.094-.039.16-.109.203-.203v-.328l-.531-.062c-.094.043-.164.074-.203.093-.043.024-.043.032 0 .032-.086 0-.125.07-.125.203Zm-16.078-.266c0 .043.04.105.125.187l.14-.062v-.063c.083-.093.126-.16.126-.203h-.39Zm1.453.86a2.204 2.204 0 0 1-.36-.235c-.155-.114-.304-.172-.437-.172l-.265.14c-.18.094-.309.184-.39.266l.265.063c.082.093.172.14.265.14Zm16.36-.266-.141.265.266.063.14-.266Zm-4.266.937a.478.478 0 0 0-.266.094.276.276 0 0 0-.125.234c.082.086.211.125.391.125v.344c.094 0 .316-.067.672-.203a1.099 1.099 0 0 0-.672-.203v-.125c.094-.094.094-.18 0-.266Zm2.39.328-.124-.265-.407.39h.532Zm-15.812-.14h-.125l.125.468h.14Zm14.625.734c.133-.219.133-.414 0-.594h-.406c.176.356.312.555.406.594Zm-14.625-.125-.125.266.125.062.14-.266Zm1.734.125v.266h.329v-.266Zm8.766.062v.266l.328-.062Zm3.594.204a2.554 2.554 0 0 0-.672.468h.531l1.063.266-.063-.063-.062-.14v-.063h-.672Zm1.187 1.125c.094 0 .141-.02.141-.063 0-.133-.023-.223-.063-.266l-.203-.203c-.218.274-.265.477-.14.61Zm-1.453.671c.082 0 .172.043.266.125.258-.218.39-.394.39-.53l-.062-.126-.063-.062c-.042-.051-.09-.164-.14-.344l-.125.14h-.14l-.126.126Zm-14.75-.593c-.054 0-.078.043-.078.125h.344c0-.04-.09-.149-.266-.328Zm17.266.53v-.265l-.531.125v.203Zm-1.188.126c-.355 0-.53.09-.53.266 0 .136.128.203.39.203h.14Zm-14.093.062-.391.141v.063l.531-.125Zm8.515.532.266-.266-.266-.187c-.18.042-.265.152-.265.328Zm5.844-.125c-.273.136-.406.293-.406.468h.406c.176-.132.176-.289 0-.468Zm-.531.593c0-.132-.09-.242-.266-.328a.474.474 0 0 0-.281.11c-.086.062-.125.117-.125.156.094.043.226.062.406.062Zm1.656.141c0-.05-.043-.078-.125-.078 0 0-.016-.008-.047-.031-.023-.02-.031-.032-.031-.032l-.125-.062h-.469c.094.18.14.355.14.531a.432.432 0 0 0 .329 0h.328Zm-7.234.86h-.266v.14h.266Zm6.5.406c.175 0 .289-.024.343-.078.082-.083.125-.145.125-.188-.086-.094-.28-.14-.593-.14Zm-6.5.656c0 .094.02.14.062.14h.203c.04-.226.04-.343 0-.343-.18 0-.265.07-.265.203Zm6.437.14c-.219.22-.328.418-.328.594l.125.063h.469l-.125-.39Zm.328.72-.187.265.265.078.188-.266Zm.61.609a.951.951 0 0 0 .593-.203l-.593-.141c-.094.18-.094.293 0 .344Zm-.938-.203c-.219-.133-.418-.114-.594.062.082.094.239.14.47.14.081 0 .124-.046.124-.14Zm-6.047 1.187-.125.078.063.125h.125Zm7.11 2.594c0-.125-.024-.211-.063-.266 0 0-.012.016-.031.047l-.031.031-.079.063h-.062Zm5.515 3c.094 0 .14-.067.14-.203h-.343Zm.344.39h-.344v.407c.133.125.313.187.531.187a.672.672 0 0 1-.125-.39Zm.328 1.407-.14.187.14.078.125-.203Zm1 2.718c0-.175-.137-.285-.406-.328-.137.125-.203.215-.203.266 0 .125.054.246.172.36.113.116.21.171.296.171l.063-.203Zm-1.797 1c.082 0 .203-.02.36-.062.156-.05.28-.117.375-.203l-.204-.078-.203-.125c-.093-.04-.25-.063-.468-.063a.69.69 0 0 0-.266.063.209.209 0 0 0-.125.203c.176.18.352.265.531.265Zm-22.86 3.844c.22 0 .349-.086.391-.265h-.265c0 .18-.043.265-.125.265ZM300.713 27.87c.395 0 .711.15.954.438.25.282.375.621.375 1.016-.711 7.406-1.133 14.277-1.266 20.61-.043.667-.063 1.663-.063 2.984l-.062 3h-.344c-.262 0-.414.023-.453.062-.055.043-.344.063-.875.063l.14.14-.14.125h.14l.266-.062c.082.043.301.062.657.062h.468c.094 0 .14.024.14.063v.14h-.343l.14.063-.14.14h.344c-.055 3.368-.078 8.391-.078 15.079 0 .93-.446 1.39-1.328 1.39l-8.766.204c-.625 0-1.07-.286-1.328-.86l-1-2.797h.062v-.062h-.125l-5.25-13.953a5.24 5.24 0 0 0 .797-.47l-.328.063-.14-.062-.329.062-.14.079-2.516-6.657-.469 23.532c-.093.886-.558 1.328-1.39 1.328h-8.969c-.406 0-.727-.13-.969-.391a1.413 1.413 0 0 1-.375-1c.094-2.3.274-5.582.532-9.844l.078-1.593c.488-8.32.863-14.235 1.125-17.735l1.203-13.89c.039-.801.484-1.223 1.328-1.266l6.375-.203c1.414-.082 2.633.277 3.656 1.078 1.02.793 1.836 1.898 2.453 3.312l.063.063 5.515 14.422 1.079-17.61c0-.843.46-1.265 1.39-1.265Zm-24.328 9.298c-.086 0-.172.07-.265.203l.406.203c0-.176-.047-.312-.14-.406Zm-.797 3.469v-.204h-.39v.204Zm1.063.328c.176-.133.266-.29.266-.47h-.391v.267c.082.093.125.164.125.203Zm3.125-.063c-.219-.226-.375-.363-.469-.406 0 .18.047.355.14.531l.204-.062Zm-1.531.453c.132 0 .312-.062.53-.187l.079-.14h-1.203v-.204h-.531v.266h.53v-.063l.142.14.265.126c0 .043.063.062.188.062Zm1 .078.14-.203-.531-.14v.203Zm.468.063a.715.715 0 0 0 .532-.203c-.18-.133-.336-.203-.47-.203-.085.093-.105.164-.062.203Zm-2.187.062c.125.22.32.266.594.141-.137-.094-.336-.14-.594-.14Zm-1 3.516v.266h.531v-.266Zm2.86.875h.656v-.266h-.657Zm.921 1.86c0-.133-.152-.27-.453-.407.082.356.191.578.328.672Zm4.719-.266c0 .219-.04.367-.11.437-.062.063-.246.094-.546.094l.125.203.875-.61Zm-5.578.531v-.406h-.469v.406Zm4.578.531V48.2h-.328v.406Zm-6.234-.203c.175.219.316.32.421.297.114-.02.192-.117.235-.297Zm7.109.328v-.125l-.14-.14-.063.203.125.265h.078Zm-4.328-.125c.406.137.719.137.937 0Zm-1.453.532v.265h.656v-.265Zm-2.063.656c0-.082-.047-.211-.14-.39v-.141c-.305 0-.524.07-.657.203v.328Zm8.11 0h.265v-.266h-.265Zm-.407.61v-.204h-.468v.203Zm5.844 0 .14-.204h-.14l-.062.125Zm-13.953.53c.133-.093.203-.16.203-.203 0-.176-.2-.285-.594-.328v.39Zm.875.063v-.266h-.469v.266Zm7.844.531a2.415 2.415 0 0 1-.141-.797.671.671 0 0 1-.11.094c-.023.023-.03.059-.03.11l-.188.187-.203.078-.063.125c.082.094.125.164.125.203l.14.063Zm-2.594.328s-.016-.008-.047-.031c-.023-.02-.031-.031-.031-.031-.086 0-.172-.04-.266-.125-.086 0-.125.09-.125.265v.125h.469Zm-6.047.078c-.23.125-.344.278-.344.454h.672Zm17.266 0v.188h.14v-.188Zm-15.61.594v.531h.39v-.53Zm-3.062.063v.468h.531v-.468Zm10.172 1.062c0 .274.195.406.593.406v-.406Zm2.187.86c-.437-.22-.746-.329-.922-.329 0 .22.176.375.532.47.039-.04.109-.063.203-.063Zm-2.39.468.265-.39-.39-.078-.204.343Zm.203-.265.062.203.797-.203-.125-.203Zm6.984.14.188-.265-.266-.078-.188.203Zm-4.656.188-.063-.266-.531.14.063.204Zm-13.422.406c.258 0 .476-.047.656-.14l-.125-.391c-.355.18-.531.355-.531.531Zm10.36-.203c-.18-.176-.337-.285-.47-.328-.042.136-.195.226-.453.265.04.043.102.063.188.063l.14.062.266.141.203-.062Zm-8.907.14v.266l.531-.203-.125-.266Zm.797.922c-.399-.218-.594-.328-.594-.328l-.203-.14-.656-.125.125.593Zm8.984.672c-.054-.27-.187-.406-.406-.406-.043.043-.043.11 0 .203 0 0 .008.012.031.031.02.024.032.032.032.032Zm6.578-.078c.082.23.172.367.266.406.082-.039.102-.148.063-.328h-.266Zm-6.515.469h.062c.04 0 .11-.04.203-.125h.063l.062-.063-.53-.14v.406Zm2.781.203-.125-.469-.203.078v.391Zm-11.422-.062v-.329h-.672v.329Zm9.11.656.328.14.125-.265-.328-.063Zm-9.375-.063v.469h.39v-.469Zm8.578.469a.258.258 0 0 0-.22.11c-.042.062-.015.117.079.156l.406-.063Zm2.78.594c-.042.043-.108.062-.202.062h-.125c0 .055.086.211.265.469l.266.328c.176-.082.305-.172.39-.265.051-.04.13-.094.235-.157.113-.07.211-.148.297-.234l-.39.062h-.141l-.125.063-.141.078c-.086-.094-.125-.16-.125-.203 0-.094-.047-.16-.14-.203Zm-1.655.265-.141-.203-.453.078.125.266Zm-10.11.204c-.261 0-.39.023-.39.062-.094.043-.141.11-.141.203l.406.266.125-.328Zm12.89.468-.187.063.063-.14h-.531c-.043.054-.133.077-.266.077.04.18.129.266.266.266l.125.125.203-.203h.594l.53-.125-.124-.203-.531.14Zm1.204.594.266-.14-.203-.391-.329.125Zm-5.047-.203c.133.043.332.043.594 0-.137-.176-.336-.266-.594-.266Zm-6.25.203v.39h.469v-.39Zm9.563.469c.27.18.582.219.937.125v-.203c0-.176-.137-.286-.406-.328l-.531.14Zm-1.782.062v-.328h-.265v.328Zm1.391.125c-.043-.082-.121-.133-.234-.156a.746.746 0 0 1-.297-.11l-.266-.062.266.469Zm3.86.938c.257.086.41.125.453.125.093-.04.128-.102.109-.188a.289.289 0 0 0-.172-.203Zm-2.532.937.266-.078-.406-.922-.266.063Zm-2.984-.937v.328h.453v-.328Zm.39.937c-.086-.093-.062-.25.063-.468l-.656.203c0 .086.086.125.265.125 0 .043.04.062.125.062Zm4.391 1.063a.361.361 0 0 0 .266.125l.53-.125c-.53-.27-.82-.492-.858-.672v-.328l.03-.031.032-.032-.062-.078-.407.14c0 .044-.11.087-.328.126l-.14.14-.204.125.47.079.405.062c.082.18.172.336.266.469Zm-2.328-.531c0-.094-.137-.208-.406-.344l.265.61Zm.922 1.25c.351-.083.554-.145.61-.188l.202-.14.125-.126.14-.078-.202-.453h-.266l-.344-.14c0 .093.047.23.141.406 0 0 .008.011.031.031.02.023.032.031.032.031v.125c.093.055.093.121 0 .203 0 .043-.06.09-.172.141a1.053 1.053 0 0 0-.297.188Zm-14.078-.985v.453h.39v-.453Zm12.359 1.328.266.125 1.453-.797c-.219.094-.461.141-.719.141-.094.086-.25.125-.469.125-.355.094-.601.184-.734.266l.14.062h.063Zm5.11-.672c0 .22-.032.356-.094.407-.063.043-.25.062-.563.062l.125.266.875-.672Zm-16.938.532c.351-.133.57-.243.656-.328a1.405 1.405 0 0 0-.656-.141Zm15.812 1.125.329.078.078-.406h-.344Zm-15.015-.188v.39h.656v-.39Zm13.75.125-.39.406.124.063c.05 0 .086.012.11.031.02.024.03.055.03.094l.595-.125Zm.797.406c-.125.18-.102.266.078.266.125 0 .21-.023.265-.078l-.078-.063c-.086 0-.172-.039-.265-.125Zm.734.532c0 .043-.07.062-.203.062h-.063l-.265.39v.079h.062l.266-.406c.176-.04.351-.04.531 0l.078-.063Zm1.203.062c-.137.086-.25.195-.344.328h-.062l.062.063c.094-.176.207-.285.344-.328h.063Zm-4.39 1.203c.082-.05.171-.14.265-.265l-.672.125h-.125l-.265.062c.175.137.175.293 0 .469.312 0 .488-.067.53-.203.134-.082.224-.145.267-.188.039-.05.039-.05 0 0Zm0 0"/><path d="M336.126 48.933c1.551-1.632 2.613-3.472 3.188-5.515l.078-.063v-.062c.351-1.551.531-3.082.531-4.594 0-2.082-.383-3.785-1.14-5.11-1.5-2.706-3.934-4.456-7.297-5.25-.938-.226-2.118-.343-3.532-.343-1.418 0-2.902.117-4.453.344l-12.75 1.453c-.71.054-1.11.453-1.203 1.203L306.22 72.12c0 .45.137.808.406 1.078.27.262.582.39.938.39h15.28c3.364 0 6.087-.44 8.173-1.327 2.3-.883 4.14-2.477 5.515-4.782 1.375-2.3 2.063-4.738 2.063-7.312 0-2.219-.336-4.035-1-5.453-.668-1.414-1.73-2.743-3.188-3.985Zm-1.515-16.28-.141.265h-.14l.077-.266Zm-9.704 1.327-.343-.125c-.18-.093-.309-.14-.39-.14l.265-.203.328-.188.469.39v.141l-.141.125Zm.063 2.063c-.043.043-.11.062-.203.062l-.063-.125c-.043-.039-.062-.11-.062-.203l.062-.328.39-.469c0 .094-.023.164-.062.203l-.062.125c-.094.094-.094.211 0 .344a.457.457 0 0 1 .125.328Zm1.719-.125h.14v.265h-.14Zm3.328 1.453.14-.266h.125l-.125.328Zm-8.906 2c1.77-.313 3.097-.469 3.984-.469.625 0 1.156.156 1.594.469.312.18.468.601.468 1.266 0 .398-.07.93-.203 1.593-.261.969-.793 1.68-1.593 2.125-1.418.836-3.586 1.543-6.5 2.125l.593-6.922Zm9.703 2.516c0 .136-.043.25-.125.343l-.14-.078c0-.082.085-.172.265-.265Zm-12.157.734c0 .219-.136.398-.406.531l.14.266.204.203s.008.012.031.031c.02.024.031.031.031.031l-.14.266h-.39c-.138 0-.204-.066-.204-.203l-.14-.266c.269-.176.363-.304.28-.39h-.202l-.079-.063h-.062c0-.094.047-.14.14-.14h.126l-.063-.125s-.012-.02-.031-.063c-.024-.05-.059-.078-.11-.078v-.203c0-.04.024-.063.079-.063v-.125h.125l.203-.14.14.14.266.266Zm18.141 2c-.094.086-.164.125-.203.125-.086 0-.125.023-.125.062a.3.3 0 0 1-.172-.062c-.062-.04-.094-.11-.094-.203 0-.125.086-.188.266-.188h.125l.203.063Zm-18.672.187c.04.055.13.121.266.204l.062.265h-.734l.14-.265.126-.063Zm8.969.61c.082-.094.125-.25.125-.469h.61v.203l.062.125v.14Zm-.938 0c0 .125.086.187.266.187-.355.23-.664.23-.922 0l.39-.062c.134-.082.235-.145.298-.188.07-.05.062-.031-.032.063Zm-7.968.187c0 .055.02.078.062.078v.063l-.39.203c-.18-.05-.356-.207-.532-.469l.532-.062.125.062h.14l.063.063Zm9.297.14s.007.013.03.032a.357.357 0 0 0 .048.031v.141h-.266a.668.668 0 0 1-.344-.078c0-.04.055-.094.172-.156a.679.679 0 0 1 .36-.11Zm1.203 1.204c-.137.125-.274.188-.407.188-.086 0-.214.046-.39.14 0-.094-.024-.16-.063-.203l-.14-.062-.125-.141.125-.125.203-.266c.219-.133.347-.27.39-.406Zm-4.25-.61v-.187l.53.063v.265Zm-9.313.61c-.043-.05-.133-.078-.265-.078l-.125-.063-.407-.125c0-.132.176-.27.532-.406l.265.203Zm9.578-.406c.176.136.176.293 0 .469h-.14l-.125-.063s-.012-.008-.032-.031c-.023-.031-.03-.047-.03-.047l.062-.125.125-.14Zm-10.968.594a.712.712 0 0 1-.329-.063l.125-.39c.051 0 .098.011.141.03.04.024.082.032.125.032h.266v.39Zm3.39-.063c0-.039.031-.07.094-.094a.32.32 0 0 0 .172-.11v.267c0 .136-.024.25-.063.343l-.343-.203c0-.039.046-.11.14-.203Zm16.547.14c.04-.05.129-.097.266-.14.132-.039.265-.062.39-.062h.282l.187.062-.266.266Zm-.266.126-.14.062-.063-.187h.14Zm-5.578.593v-.39h.328v.39Zm-.734 0c.312.137.469.313.469.532h-.61c.094-.176.14-.352.14-.532Zm6.906.141-.265.125v-.125l.203-.062Zm-9.625 2.328c-.094.086-.21.059-.344-.078l-.062-.187c0-.176.086-.266.266-.266.132 0 .242.023.328.062v.47Zm4.516.453v-.265c.039 0 .062-.02.062-.063h.407l-.141.328Zm-4.063 4.719c-.218 0-.37-.11-.453-.328.176 0 .305.023.39.062.04.055.063.141.063.266Zm-3.843.469.062-.063c.969-.218 1.785-.328 2.453-.328.488 0 .867.063 1.14.188.79.492 1.188 1.203 1.188 2.14 0 .574-.156 1.149-.468 1.719-.305.574-.68 1.04-1.125 1.39a9.484 9.484 0 0 1-2.563 1.438c-.906.336-2.07.57-3.484.703l.265-6.656Zm6.703-.39h.14v.327h-.14Zm-14.61 1.062c0 .125-.07.234-.203.328v-.594c.133.125.203.215.203.266Zm.125.859-.03.031-.032.032c-.219.136-.309.292-.266.468.04.043.051.09.031.14a.257.257 0 0 0-.03.126c-.044-.04-.134-.063-.266-.063v-.203c.175-.133.265-.265.265-.39-.137-.133-.07-.25.203-.344h.063v.14c.039 0 .062.024.062.063Zm-.125 1.469c0 .086-.039.226-.11.422-.062.199-.14.343-.233.437a7.494 7.494 0 0 0 .234.235c.02.023.031.03.031.03l-.125.063c-.043-.039-.133-.062-.265-.062v-.797c-.094-.27-.094-.516 0-.734h.265c0 .042.04.109.125.203Zm2.516-.078c.039.054.05.101.031.14a.257.257 0 0 0-.031.125l-.063-.125c0-.093-.023-.16-.062-.203 0-.082.039-.148.125-.203Zm-2.719 2.39c0-.039-.027-.07-.078-.093-.043-.02-.062-.032-.062-.032-.043 0-.075-.02-.094-.062-.024-.051-.031-.078-.031-.078h.265Zm.063 2.797c-.043.094-.063.274-.063.531-.18 0-.289.047-.328.141.082.086.145.125.188.125.093 0 .14.047.14.14-.043 0-.062.024-.062.063l-.078.063-.266-.266c-.137-.082-.203-.148-.203-.203l.078-.266.062-.187h.204l.203-.078a.51.51 0 0 0-.344-.125 7.338 7.338 0 0 1-.125-1.391c0-.094.086-.14.266-.14.132-.094.203-.18.203-.266v-.203c0-.133.02-.223.062-.266l.063 1.14a.376.376 0 0 0-.328.188c.039.055.101.11.187.172a.408.408 0 0 1 .172.203c.02.063.031.14.031.235Zm11.297-.39c-.086.085-.215.125-.391.125l-.203-.204.265-.125.266-.14Zm-11.891 1.78v-.187l.062-.078h.204l.265.078v.39h-.203Zm2.984 4.391s-.011-.007-.03-.03c-.024-.02-.032-.032-.032-.032v-.14c0-.126.039-.266.125-.423.094-.156.18-.28.265-.375v-.265l-.062-.266.062-.062c0-.04.024-.063.079-.063-.137-.351-.118-.664.062-.937.176-.352.266-.774.266-1.266l.125-.39c.093-.176.18-.313.265-.407v4.656Zm-2.78-3.125h-.142v-.265h.141Zm0 .594h-.142v-.187h.141Zm-.08 1.203a.864.864 0 0 1-.468 0v-.265h.469Zm2.532.86c0 .093-.047.187-.14.28-.086.087-.125.169-.125.25.039.056.062.142.062.267 0 .18-.09.355-.266.53l-.125.079h-.078c-.043-.05-.062-.188-.062-.406 0-.258.047-.391.14-.391.082 0 .211-.223.391-.672.04 0 .063.024.063.063ZM377.594 29.199c.082.137.125.36.125.672 0 .219-.023.398-.062.531l-12.032 29.36-.39 12.296c0 .887-.446 1.329-1.328 1.329l-8.782.203c-.437 0-.793-.141-1.062-.422a1.292 1.292 0 0 1-.328-1.047l1.062-11.031-.734-1.922c-3.899-10.813-6.2-17.258-6.906-19.344l-1.188-3.187a87.854 87.854 0 0 1-1.734-4.907 1.077 1.077 0 0 1-.063-.406c0-.312.09-.578.266-.797a1.58 1.58 0 0 1 .594-.469l7.109-2.515c.27-.094.469-.14.594-.14.488 0 .867.312 1.14.937l6.5 16.937 1.407-3.312.265-.078-.265-.063 5.64-13.297c.27-.656.739-.941 1.407-.86l7.703.86c.394 0 .75.227 1.062.672Zm-.937 1.531c-.086 0-.125-.047-.125-.14 0 0-.012-.008-.032-.032-.023-.02-.058-.03-.109-.03h-1.39c-.399-.22-.641-.329-.735-.329l-.266-.203c-.086 0-.214-.04-.39-.125a1.86 1.86 0 0 1-.938.266c-.261 0-.418-.047-.468-.141a9.622 9.622 0 0 0-1.329-.672c-.355-.082-.796-.125-1.328-.125-.086 0-.183.047-.297.14-.105.087-.156.173-.156.266 0 .262.149.414.453.453.313.055.535.102.672.141.133.043.332.133.594.266.27.136.625.203 1.062.203h.797l.532.187 1.203.407 1.187.468c.352.125.578.188.672.188l.39-.063Zm-28.438.063c.352-.082.531-.172.531-.266-.312-.258-.53-.39-.656-.39-.273 0-.539.132-.797.39.125.094.211.25.266.469Zm-1.719-.266c-.093 0-.14-.066-.14-.203-.137.055-.203.121-.203.203l.078.14Zm3.454 0-.204-.125-.203-.078c-.218.094-.328.184-.328.266.082.054.211.078.39.078Zm16.468 10.563c.133-.125.223-.188.266-.188l-.188-.203c-.355 0-.558.023-.609.063h-.187v.265c.039.094.171.14.39.14a.601.601 0 0 0 .328-.077Zm-5.843 4.453c.093.094.27.094.53 0v-.203l-.53-.063v.14h-.063Zm-.391.875s-.18.11-.531.328h.797c.175 0 .351-.086.53-.266l-.265-.062-.265-.078c-.18 0-.266.027-.266.078Zm.39 1.39c.094 0 .227-.046.407-.14l.265.14h.266c0-.039.04-.062.125-.062-.18-.094-.266-.18-.266-.266 0-.093-.09-.14-.265-.14-.086 0-.196.07-.328.203-.043 0-.11.043-.203.125l-.266.078c.094 0 .14.023.14.062Zm.672.86c-.093.094-.14.183-.14.265 0 .137.086.246.265.329.176-.083.29-.172.344-.266l.188-.266Zm-3 .734c-.125 0-.214.024-.265.063l-.125.062h.125l.203.14Zm8.313.86c.039-.083.05-.145.031-.188a.33.33 0 0 1-.031-.14h-.14s-.012-.008-.032-.032c-.023-.02-.031-.031-.031-.031h-.125c-.094 0-.211.062-.344.187a.61.61 0 0 1 .172.313c.02.105.05.203.094.297l.203-.078h.203Zm-6.984.203c.093-.04.16-.07.203-.094l.14-.11v.063h.39v-.125h-.39v.063l-.61-.063c-.218 0-.327.09-.327.266 0 .18.086.265.265.265Zm.468.656c.395 0 .617-.129.672-.39-.094 0-.164-.02-.203-.063l-.203-.078c-.137 0-.281.07-.438.203-.148.136-.218.226-.218.265Zm-.86.344-.062.062.125.063.063-.063Zm6.782 1.922c-.137.042-.25.023-.344-.063.094-.039.141-.11.141-.203.082-.133.238-.242.469-.328l.265-.14-.14-.266c-.086-.083-.125-.145-.125-.188 0-.133.02-.223.062-.266v-.203h-.328a.183.183 0 0 0-.172-.031.487.487 0 0 1-.172.031l.141.39-.14.079-.063.125c-.043 0-.063.023-.063.063l-.14.406-.063.328c0 .094.047.183.14.266.083.042.173.152.267.328h.265c.082 0 .211-.04.39-.125 0 0-.01-.008-.03-.032-.024-.02-.032-.03-.032-.03v-.079a.847.847 0 0 0-.328-.062Zm-1.531.468.39.063v-.125Zm.062 13.094c.04-.094.063-.27.063-.531 0-.094-.043-.14-.125-.14V64.62a6.1 6.1 0 0 0 .062-1 .975.975 0 0 0-.062-.39v-1.876l-.063-.125c-.054-.039-.078-.11-.078-.203 0-.133.024-.203.078-.203a.813.813 0 0 0 .063-.531l-.063-.266.063-.125c0-.039.008-.07.031-.094a.2.2 0 0 0 .031-.109c.04-.176.04-.352 0-.531a1.796 1.796 0 0 1-.062-.531c-.043-.133-.043-.333 0-.594l.062-.531h-1.125v4.109c.04.137.063.383.063.734l-.125.14-.078.063c0 .094.047.184.14.266l.063.203c.039.18.062.512.062 1 0 .438-.023.793-.062 1.063l-.063 1.984c0 .094-.046.14-.14.14-.043.044-.063.106-.063.188 0 .094.02.164.063.203 0 0 .008.012.031.032a.357.357 0 0 0 .047.03c.082.274.101.477.062.61v.531l-.062.125c-.094.094-.094.141 0 .141l.266.063v.265c.218.137.367.203.453.203h.265l.078-.203c.04 0 .063-.066.063-.203v-.125h.062ZM413.601 37.699c.801-.039 1.223-.484 1.266-1.328l.203-7.5c0-.406-.137-.738-.406-1a1.317 1.317 0 0 0-.985-.406l-29.843.609c-.844.043-1.285.484-1.328 1.328l-.407 10.031c0 .438.157.793.469 1.063.313.273.691.36 1.14.266l9.157-1.735-.39 14.235c.132-.094.265-.094.39 0v.125c0 .042-.043.062-.125.062l-.266-.125-.265 8.172h.062l-.031.031-.031.031-.266 10.641v.188c0 .312.129.593.39.843.27.242.583.36.938.36l9.031-.203c.844-.083 1.266-.524 1.266-1.329l.063-.468h-.063c-.137 0-.273-.07-.406-.22-.125-.155-.188-.28-.188-.374l.203-.39c.125-.134.188-.27.188-.407 0-.039-.063-.129-.188-.266-.136-.132-.203-.242-.203-.328 0-.093.067-.226.203-.406 0-.219-.027-.395-.078-.531-.043-.082-.062-.235-.062-.453l.14-.141c.04 0 .07-.008.094-.031.02-.02.051-.055.094-.11-.18-.082-.266-.171-.266-.265a.43.43 0 0 1-.125-.328c.258-.082.39-.192.39-.328 0-.094-.108-.227-.327-.407 0-.082.133-.144.406-.187.258-.094.32-.207.188-.344l-.188-.125a.82.82 0 0 1-.344-.062c0-.094.047-.227.14-.407l.126-.265v-.125l-.188-.078c-.093 0-.164.015-.203.046a.286.286 0 0 1-.14.032c-.086 0-.125-.047-.125-.141v-.125h.062l.031-.031.032-.047c.093-.04.226-.063.406-.063.176 0 .285-.086.328-.265l.203.265.063-.39h-.391c-.23 0-.297-.176-.203-.531a.366.366 0 0 0 0-.407l-.14-.203-.063-.265c0-.04.066-.13.203-.266.133-.133.203-.242.203-.328l-.14-.594-.204-.672.078-.203h.063l.125-.125v-.203a.926.926 0 0 0-.188-.531l.329-.125c.082 0 .171-.047.265-.141h.203l.063-1.594h-.063c-.054 0-.21-.066-.468-.203.132-.219.312-.328.53-.328l.532-19.531Zm-26.047-2.39v-.188h.407v.187Zm5.844.265v-.266h.344v.266Zm-7.437.672a1.405 1.405 0 0 0-.657-.14c-.136-.177-.093-.395.125-.657h.407l.39.266v.265Zm6.109-.594c0 .125-.023.188-.062.188h-.125l-.079.078-.265-.078v-.391h.531Zm-9.625.266v-.203h.594v.203Zm5.375-.078-.266.078-.125.125c-.23.094-.277.203-.14.328-.18.137-.309.164-.39.078a.555.555 0 0 1-.22-.062.826.826 0 0 1-.187-.141c.094-.04.226-.149.406-.328.125-.133.301-.203.531-.203h.125Zm-2.328.672v-.266l.875.125Zm2.469.921c-.313-.039-.48-.113-.5-.218-.024-.114.054-.258.234-.438h.125l.14.063h.266v.468Zm5.172-.453c0 .18-.063.328-.188.453-.18-.125-.266-.254-.266-.39h.188Zm-7.375.657v-.266h.406v.266Zm4.593.062c-.043.18-.265.246-.672.203-.086 0-.148-.02-.187-.062h-.203a1.092 1.092 0 0 0-.406-.063c.132-.27.312-.406.53-.406.095 0 .407.047.938.14Zm3.657 19.203-.141-.062.203-.125.14-.141.126.266-.328.14Zm7.5.469c-.086.094-.149.14-.188.14l-.047.032-.031.031-.125-.062v-.141Zm-7.172 2.266c0 .136-.047.312-.141.53-.086.22-.168.352-.25.391a.51.51 0 0 1 .125.344c-.043.043-.055.121-.031.235.02.105.031.18.031.218 0 .094.047.32.14.672l.188.39c0 .188-.11.345-.328.47l.14.078c0 .18.008.375.032.593.02.22.008.418-.031.594-.094.274-.032.45.187.531-.125.18-.258.266-.39.266.132.137.203.203.203.203.082 0 .125.043.125.125l-.063.078c-.043.043-.11.063-.203.063l-.469-.063-.265-.14a.301.301 0 0 1-.203-.063l.078-.734.125-1.453c.093-.364.093-.567 0-.61v-.468c.175-.22.265-.415.265-.594 0-.04-.07-.13-.203-.266a.37.37 0 0 1-.187-.203c0-.039.039-.102.125-.187l.203-.204c-.094-.093-.14-.18-.14-.265 0-.094.023-.14.077-.14l.063-.188c-.043-.094-.063-.227-.063-.407 0-.312.176-.734.532-1.265 0 .273.066.386.203.344.175.042.265.132.265.265l-.078.266Zm9.562 1.265c0 .043-.023.063-.062.063v.125h.062Zm-1.328 2.594c0 .086-.043.148-.125.187l-.266-.062v-.203c.04.054.11.078.204.078Zm-8.437 4.906c-.22.094-.282.211-.188.344 0 .18-.07.375-.203.594l-.344.062c-.219-.312-.328-.508-.328-.594-.086-.039-.125-.175-.125-.406 0-.039.04-.062.125-.062.094 0 .07-.11-.062-.328a.323.323 0 0 0 .062-.204l.063-.14.078-.797c0-.125-.028-.211-.078-.266a.712.712 0 0 1-.063-.328c-.043-.039 0-.16.125-.36.133-.195.27-.343.406-.437.04 0 .07.012.094.032a.711.711 0 0 1 .11.109l.203.062ZM450.018 27.277c.445 0 .8.137 1.062.406.27.262.407.59.407.985l-.203 7.906c-.094.844-.516 1.29-1.266 1.328l-18.266 1.922-.468 5.516 13.687-.72v6.5h.266v-6.5c.351 0 .672.138.953.407.289.262.437.57.437.922v6.906c0 .75-.375 1.196-1.125 1.328l-14.547 1.922-.343 5.516 17.75-.531c.394 0 .722.136.984.406.27.262.406.57.406.922v8.375c0 .844-.422 1.289-1.265 1.328l-27.969 1.469c-.398 0-.73-.118-1-.36-.27-.25-.406-.593-.406-1.031.093-6.562.297-13.383.61-20.469.312-6.508.862-13.843 1.655-22 .133-.8.578-1.203 1.328-1.203ZM431.08 28.73h.141v-.203h-.14Zm4.313.407c-.043.042-.055.074-.031.093.02.024.078.032.172.032-.094 0-.141-.04-.141-.125Zm1.266 1.125c.093-.083.14-.172.14-.266 0-.176-.136-.266-.406-.266-.262 0-.46.09-.594.266l-.203.266c.133-.083.203-.172.203-.266l.328-.063c.27.043.407.153.407.329v.265c0-.082.039-.172.125-.265Zm9.968-.47h-.125v.204h.125Zm-18.875.407h1.407v-.203h-1.407Zm4.797-.203h-.937v.062h-.125c-.23.094-.344.164-.344.204h.469l.062-.063h.875Zm-2.203.266h.203v-.125h-.203Zm11.031 0h-.53v.265h.53Zm-7.906.265c-.086 0-.125.11-.125.328l.266-.265c.125-.125.078-.145-.14-.063Zm4.39.203h-.265v.125h.266Zm-10.702 1.125.062.266v.14h.266c0-.05.047-.117.14-.203l.125-.14Zm8.109.938c-.219-.094-.328-.18-.328-.266v-.078l.328-.328-.266.14h-.14c-.043 0-.074.012-.094.032-.023.023-.055.031-.094.031h-.14c-.22.086-.399.262-.532.531l.141.125h.797c.039 0 .07-.008.094-.031l.03-.031h.063Zm2.266.187h.062l.063.078.062-.203h-.187Zm-3.797.469-.125-.39c-.356.124-.532.257-.532.39.125.043.211.043.266 0Zm2.922.531c0-.082-.11-.21-.329-.39l-.203.39Zm2.734.063c0-.04-.047-.102-.14-.188l-.126-.14c-.355.136-.53.273-.53.406Zm-4.453.078c-.274-.133-.477-.203-.61-.203-.218 0-.328.11-.328.328l.328.203.204.063h.062c.094 0 .14-.067.14-.204Zm2.594.531c.082.086.191.086.328 0 0-.27-.09-.426-.266-.469l-.531.125.125.344Zm-13.97-.203h-.062l-.125.063.125.062Zm12.36.594c.133 0 .203-.086.203-.266 0-.176-.109-.265-.328-.265l-.14.062h-.063l-.062.078c-.094.086-.141.172-.141.266l.078.125Zm9.906-.469h-.125v.344h.125ZM435.8 37.84h-.141v.203h.14Zm-5.391.203c-.086 0-.125.062-.125.187h.125l.078-.062c-.055 0-.078-.04-.078-.125Zm-.391 3.25-.14.14.343.063c.04-.04.04-.149 0-.328-.055 0-.121.043-.203.125Zm.328 1.328.063-.063-.329-.062v.062Zm.406 2.656h.328v-.328h-.328Zm.203.875c-.136 0-.23-.023-.28-.078l-.266-.062-.063.062c-.137.055-.203.14-.203.266 0 .23.176.343.531.343.133 0 .227-.023.281-.078Zm5.047.39h.063v-.062Zm9.5.86c.133 0 .243.027.328.078l.329.063.265-.328v-.532a.575.575 0 0 0-.234-.14.861.861 0 0 0-.297-.063l-.39.266Zm-9.172-.797.141-.062h-.14Zm-1.734.672.344.266c.082-.04.133-.117.156-.235.02-.113-.012-.191-.094-.234Zm1.734.063.266.14.14-.406h-.265Zm-3.921.468c.27-.093.27-.226 0-.406Zm-1 .391.265.266.344.078.062-.078h.125v-.328c-.18 0-.308-.04-.39-.125l-.14.062-.032.031-.031.032Zm3.187-.062.14.265h.47l-.204-.125-.265-.203Zm-4.375.203a1.091 1.091 0 0 0-.281-.125.9.9 0 0 0-.328-.078c0 .093.066.183.203.265.094.094.289.14.594.14h.203v-.202Zm4.25.797h.531a.21.21 0 0 0 .125-.204v-.265h-.53l-.063.265Zm-4.719.39c0 .055.008.09.032.11.02.023.05.011.093-.032l.203-.078-.125-.062h-.078c-.086 0-.125.023-.125.062Zm-.797 1.266c.22 0 .375-.04.47-.125-.095 0-.184-.047-.266-.14l-.079-.063h-.328c-.136.136-.203.265-.203.39Zm.922.328c-.218 0-.527-.04-.922-.125l-.203.125.203.266c.083-.22.192-.282.329-.188.27 0 .468-.023.593-.078Zm-2.843 0c-.137.055-.204.14-.204.266l.204.14.265-.062c0-.094.063-.16.188-.203l-.188-.063Zm18.062 1.797.266-.328.14-.266-.14-.469c-.043-.039-.133-.238-.266-.593Zm-15.281-.594c0-.082.133-.3.406-.656l-.266-.078h-.265a.7.7 0 0 0-.406.14l-.532.203c.133.043.254.086.36.125.113.043.191.09.234.141-.086.219-.105.371-.062.453l.593-.125Zm-1.797-.125c.133.086.25.086.344 0l-.078-.078-.125-.063-.141.063Zm2.125-.078c.05.137.11.23.172.281.062.043.16.063.297.063.039 0 .195-.047.468-.141l-.203-.203Zm-1.984.203c-.274.137-.34.246-.204.328l.063.266c.176 0 .312-.04.406-.125 0-.176-.09-.332-.265-.469Zm2.984.672h-.328c-.137 0-.203.043-.203.125 0 .094-.043.14-.125.14 0-.226-.07-.363-.203-.406h-.407c0 .094.047.14.141.14l.203.188-.469.204-.328.265c.04.043.094.063.156.063.07 0 .13.027.172.078h.532c.175 0 .46-.086.859-.266Zm-2.39.266c-.137 0-.25.078-.344.234a.839.839 0 0 0-.125.422v.328c.226.18.43.266.609.266h.187l.204-.125v-.86l-.266-.203Zm-1.063.328c-.043 0-.11.039-.203.109-.086.063-.125.117-.125.156a.865.865 0 0 0 .468 0Zm14.75.39h.797v-.187h-.797Zm-11.625.203c.094 0 .14-.066.14-.203h-.406l-.14.203Zm-3.656.063c-.22.055-.329.14-.329.266h.329c.039-.04.039-.13 0-.266Zm3.062.406c.082.043.211.063.39.063 0-.133-.09-.243-.265-.328Zm-1.937 0c-.18.18-.266.309-.266.39l.61.079.124-.266c-.086-.093-.125-.16-.125-.203Zm1.14.531-.078-.406c-.219 0-.328.09-.328.266v.265Zm1.25.125c0-.082-.043-.125-.125-.125l-.14-.14c-.086.054-.282.078-.594.078l-.266.062-.125.063.328.266c.258-.083.414-.125.47-.125Zm-1.062.672.203-.14-.531-.125v.265Zm-.453 0a1.138 1.138 0 0 0-.532-.14l.125.265c.176 0 .313-.039.407-.125Zm-.797.39c0 .056-.047.122-.14.204l.733.063c.083 0 .125-.063.125-.188Zm-.672.47a.458.458 0 0 0 .406.203l-.266-.531-.468.062Zm1.125.609c-.086-.176-.106-.289-.063-.344.04-.133.04-.222 0-.265l-.203.203c-.043 0-.062.047-.062.14v.266Zm1.328-.14c.227 0 .344-.087.344-.266h-.344Zm-3.516-.204c-.136.055-.203.121-.203.203l.406.141c0-.094.02-.16.063-.203l.062-.063Zm1.86.469v.266h.203v-.266Zm.328.14c0 .087.023.126.078.126l.062.14.47-.14c-.055 0-.079-.04-.079-.125v-.078a.381.381 0 0 0-.203.046.257.257 0 0 1-.125.032Zm1.062.594h-.39v.266h.39Zm-3.78.391c-.087.137-.063.273.062.406.226-.093.343-.226.343-.406Zm1.39.469.14.062c.082 0 .149-.02.203-.062l-.078-.328h-.125l-.03.03-.032.032h-.14v.266Zm-1.39 1.062c.175 0 .284-.02.327-.062 0-.04.008-.07.031-.094l.11-.11-.203-.124-.328.125Zm1.921-.125h-.328v.063l.265.062Zm-1.063.797a.485.485 0 0 0 .344.125v-.39c-.136 0-.25.09-.344.265Zm5.86 2.516h.531v-.125h-.531Zm2.656.078-.344.187c.133.055.203.141.203.266h.329c.093-.082.14-.145.14-.187l.063-.141-.125-.328c0 .043-.028.09-.078.14-.043.043-.106.063-.188.063Zm3.781.266h.141l.062-.141-.062-.063Zm-5.64-.141h-.407v.14h.407Zm3.047.531.265-.062c0-.04-.023-.063-.062-.063l-.125-.14Zm-3.844.14.125.126c.219-.082.265-.172.14-.266-.093 0-.14.024-.14.063h-.125Zm2.312.126a.457.457 0 0 0-.328-.125l.14.453.032-.031.031-.032c.04 0 .063-.039.063-.125.039 0 .062-.046.062-.14Zm1.266.14c-.219.086-.328.196-.328.329h.328c0-.094.023-.16.078-.204Zm-9.438.985v.406l.141-.14.266-.266Zm1.329 0c0 .136.113.203.343.203v-.125c0-.05.02-.078.063-.078Zm3.468.203.125.266h.141l-.203-.266Zm6.375.203c0 .219.11.328.328.328l.141-.203.063-.125Zm-2.328.125h-.14l-.063.203h.203Zm-2.125.406.031-.031.032-.031-.125-.14h-.14l.14.265.031-.031.031-.032Zm-5.781.735h-.531v.328h.531Zm-6.11 1.453c0-.219.063-.348.188-.39h-.86v.39Zm24.188-.125.797.125v-.188l-.672-.203Zm-19.875-.14h-.734v.265h.734Zm4.39.265v.344h.532v-.344Zm3.657.265c-.055.094-.078.274-.078.532l.078.343h.922l.14-.265c.04-.051.063-.14.063-.266l-.328-.344Zm-10.234.344h.718v-.265h-.718Zm2.921 1.39c.133-.038.243-.16.329-.359.093-.207.14-.421.14-.64 0-.258-.07-.457-.203-.594-.094 0-.273.07-.531.203.176.399.265.86.265 1.39Zm-6.64-.937c.039.137.16.196.36.172.195-.02.343-.078.437-.172Zm2.781.266h-.125v-.266h-.61v.266h.61v.266h.125Zm6.906.14c-.355 0-.593.024-.718.063l-.407.14-.328.063a.804.804 0 0 1 .25.235c.094.105.164.203.219.296.219-.132.437-.312.656-.53Zm-4.515.594a.684.684 0 0 0 .14-.39h-1.14v.593c.351 0 .664.043.937.125Zm12.172-.062h.453v-.14h-.453Zm8.437.86c0 .136-.047.202-.14.202.132 0 .269-.066.406-.203Zm-21.406.14h-.531v.265h.53Zm0 0" fill="#0d6efd"/><path d="M183.07 99.013c-.45 0-.86-.176-1.235-.531-2.524-2.363-5.293-4.004-8.313-4.922.082 2.43.125 3.774.125 4.031 0 .48-.168.887-.5 1.22-.336.32-.75.483-1.25.483s-.918-.164-1.25-.484a1.677 1.677 0 0 1-.484-1.219c0-.625.004-1.554.016-2.797.019-1.25.03-2.187.03-2.812l.016-10.078c0-.54.164-1.031.5-1.469.414-.562 1-.816 1.75-.766 2.02.157 3.055.235 3.11.235 1.164.148 2.156.43 2.969.844 3.562 1.793 5.343 4.011 5.343 6.656 0 1.094-.375 2.058-1.125 2.89-.742.836-1.855 1.543-3.343 2.125 2.195 1.23 3.859 2.485 4.984 3.766.289.336.437.703.437 1.11 0 .468-.18.874-.53 1.218a1.76 1.76 0 0 1-1.25.5Zm-8-15.719a95.15 95.15 0 0 0-1.47-.093v6.625c.207.011.391.015.547.015 2.04 0 3.551-.254 4.532-.765a4.664 4.664 0 0 0 1.171-.86c.352-.351.532-.625.532-.812 0-.926-.59-1.828-1.766-2.703-1.125-.813-2.309-1.282-3.547-1.407ZM192.956 99.435c-1.992 0-3.617-.476-4.875-1.422-1.398-1.05-2.093-2.531-2.093-4.437 0-2.102.55-3.883 1.656-5.344 1.226-1.613 2.89-2.422 4.984-2.422 1.446 0 2.649.23 3.61.688 1.257.625 1.89 1.586 1.89 2.875 0 .918-.515 1.73-1.547 2.437-.468.324-1.406.797-2.812 1.422l-4.203 1.86c.394.437.875.765 1.437.984.57.218 1.223.328 1.953.328 1.114 0 2.063-.227 2.844-.688.688-.414 1.238-.625 1.656-.625.864 0 1.297.422 1.297 1.266 0 .95-.695 1.727-2.078 2.328-1.168.5-2.406.75-3.719.75Zm-.328-10.61c-.781 0-1.449.262-2 .782-.543.512-.98 1.281-1.312 2.312.937-.406 1.875-.804 2.812-1.203 1.125-.507 2.02-.976 2.688-1.406-.563-.32-1.293-.484-2.188-.484ZM211.756 99.685c-.375 0-.98-.418-1.812-1.25-.774.367-1.45.64-2.032.828-.585.188-1.078.281-1.484.281-2.012 0-3.516-.539-4.516-1.609-1-1.07-1.5-2.68-1.5-4.828 0-2 .739-3.711 2.22-5.14 1.476-1.426 3.253-2.141 5.327-2.141.782 0 1.692.226 2.735.672 1.258.543 1.89 1.168 1.89 1.875 0 .304-.093.57-.28.796-.087.336-.153.75-.204 1.25-.043.5-.063 1.09-.063 1.766 0 1.594.114 2.742.344 3.438.02.074.207.507.563 1.296.32.72.484 1.125.484 1.22 0 .448-.168.816-.5 1.109-.336.289-.726.437-1.172.437Zm-3.094-8.578c0-.258.016-.563.047-.906.04-.344.098-.727.172-1.157a1.903 1.903 0 0 0-.437-.171 1.141 1.141 0 0 0-.328-.063c-1.137 0-2.133.445-2.985 1.328-.844.887-1.265 1.914-1.265 3.078 0 1.118.195 1.953.593 2.516.407.562 1.008.844 1.813.844a4.21 4.21 0 0 0 1.453-.25c.469-.176.906-.43 1.312-.766-.25-1.976-.375-3.46-.375-4.453ZM224.36 86.31c.1-2.844.226-4.805.374-5.89.145-.977.688-1.47 1.625-1.47.489 0 .883.165 1.188.485.3.313.453.7.453 1.156 0 1.211-.094 3.008-.281 5.391-.188 2.387-.282 4.184-.282 5.39 0 2.95.094 4.922.282 5.922.031.137.047.258.047.36 0 .46-.168.84-.5 1.14a1.72 1.72 0 0 1-1.157.438c-.625 0-1.086-.277-1.375-.828a7.201 7.201 0 0 1-1.765.765 6.741 6.741 0 0 1-1.89.266c-1.868 0-3.415-.598-4.642-1.797-1.261-1.207-1.89-2.754-1.89-4.64 0-2.239.629-4.047 1.89-5.422 1.27-1.375 2.926-2.063 4.97-2.063.624 0 1.179.07 1.671.203.488.125.914.325 1.281.594Zm-.25 3.922c-.282-.52-.641-.906-1.079-1.156-.437-.258-.965-.39-1.578-.39-1.23 0-2.152.355-2.766 1.062-.617.71-.921 1.777-.921 3.203 0 .898.328 1.668.984 2.312.664.637 1.441.953 2.328.953.645 0 1.133-.07 1.469-.218.219-.102.598-.368 1.14-.797.145-.114.286-.242.422-.39-.023-.395-.023-1.923 0-4.579ZM242.664 88.31c-.906 1.887-2.343 4.852-4.312 8.89-1.063 2.177-1.875 3.985-2.438 5.423a82.717 82.717 0 0 1-.812 2.296c-.305.782-.84 1.172-1.61 1.172-.468 0-.886-.156-1.25-.468a1.452 1.452 0 0 1-.53-1.157c0-.773.882-3.07 2.655-6.89-.918-1.801-2.37-4.457-4.359-7.969-.21-.32-.418-.645-.625-.969-.219-.383-.328-.734-.328-1.047 0-.445.176-.843.531-1.187.363-.344.774-.516 1.235-.516.55 0 .984.203 1.296.61 1.176 1.586 2.551 3.953 4.125 7.109a880.949 880.949 0 0 1 1.625-3.563 42.624 42.624 0 0 1 1.735-3.28c.363-.595.86-.891 1.484-.891.457 0 .867.156 1.235.468.375.313.562.7.562 1.157 0 .25-.074.523-.219.812ZM267.426 83.248a2.18 2.18 0 0 1-.641-.11c-1.074-.351-2.383-.531-3.922-.531-.512 0-1.101.039-1.766.11a33.65 33.65 0 0 0-2.203.296c.02 1.594.02 2.965 0 4.11 1.27-.301 2.32-.454 3.157-.454 1.539 0 2.89.07 4.046.204 1.07.136 1.61.703 1.61 1.703 0 .492-.172.898-.516 1.218a1.756 1.756 0 0 1-1.25.485c-.437 0-1.09-.031-1.953-.094-.867-.07-1.512-.11-1.937-.11-.618 0-1.668.196-3.157.579v7.828c0 .477-.195.879-.578 1.203-.375.332-.808.5-1.297.5-.48 0-.87-.164-1.172-.484-.304-.324-.453-.73-.453-1.219V84.169c0-.32.004-.812.016-1.468.02-.657.031-1.149.031-1.485 0-.488.16-.894.485-1.218.332-.32.75-.485 1.25-.485.312 0 .586.063.828.188a35.654 35.654 0 0 1 2.656-.36 22.167 22.167 0 0 1 2.203-.125c.945 0 2.14.196 3.578.578 1.801.493 2.703 1.063 2.703 1.72 0 .468-.168.874-.5 1.218a1.641 1.641 0 0 1-1.218.516ZM276.199 99.591c-1.543 0-2.868-.527-3.97-1.578-1.218-1.156-1.859-2.703-1.921-4.64-.055-1.844.453-3.485 1.516-4.922 1.27-1.696 3.03-2.547 5.28-2.547 1.665 0 2.99.668 3.97 2 .882 1.2 1.328 2.683 1.328 4.453 0 1.937-.516 3.59-1.547 4.953-1.156 1.524-2.711 2.281-4.656 2.281Zm.75-10.39c-1.032-.008-1.84.46-2.422 1.406-.5.793-.75 1.715-.75 2.766 0 1 .28 1.765.843 2.296.446.43.973.641 1.579.641.718 0 1.347-.242 1.89-.734.602-.57.926-1.352.969-2.344.101-2.676-.602-4.02-2.11-4.031ZM294.978 89.857c-.074 1.273-.652 1.906-1.734 1.906-1.043 0-1.563-.539-1.563-1.625l-.062-1.265c-1.875.304-3.22 1.265-4.032 2.89l.016 6.281c0 .48-.164.875-.484 1.188-.325.312-.735.469-1.235.469-.523 0-.922-.168-1.203-.5-.273-.305-.406-.688-.406-1.157v-8.187c0-.25.008-.629.031-1.14.02-.52.031-.907.031-1.157 0-.469.133-.86.407-1.172.28-.312.68-.469 1.203-.469.914 0 1.46.477 1.64 1.422 1.477-1.093 3.114-1.64 4.907-1.64 1.664 0 2.5 1.105 2.5 3.312 0 .43-.008.711-.016.844ZM319.845 83.248a2.18 2.18 0 0 1-.64-.11c-1.075-.351-2.383-.531-3.922-.531-.512 0-1.102.039-1.766.11a33.65 33.65 0 0 0-2.203.296c.02 1.594.02 2.965 0 4.11 1.27-.301 2.32-.454 3.156-.454 1.54 0 2.89.07 4.047.204 1.07.136 1.61.703 1.61 1.703 0 .492-.172.898-.516 1.218a1.756 1.756 0 0 1-1.25.485c-.438 0-1.09-.031-1.953-.094-.867-.07-1.512-.11-1.938-.11-.617 0-1.668.196-3.156.579v7.828c0 .477-.195.879-.578 1.203-.375.332-.809.5-1.297.5-.48 0-.871-.164-1.172-.484-.305-.324-.453-.73-.453-1.219V84.169c0-.32.004-.812.016-1.468.02-.657.03-1.149.03-1.485 0-.488.161-.894.485-1.218.332-.32.75-.485 1.25-.485.313 0 .586.063.828.188a35.654 35.654 0 0 1 2.657-.36 22.167 22.167 0 0 1 2.203-.125c.945 0 2.14.196 3.578.578 1.8.493 2.703 1.063 2.703 1.72 0 .468-.168.874-.5 1.218a1.641 1.641 0 0 1-1.219.516ZM334.415 91.638v2.531c.008 1.118.016 1.954.016 2.516 0 .18.015.438.047.781.03.344.046.606.046.782 0 .468-.171.851-.515 1.156-.336.3-.746.453-1.235.453-.687 0-1.195-.313-1.515-.938a9.447 9.447 0 0 1-3.313.594c-1.18 0-2.172-.25-2.984-.75-.906-.582-1.445-1.422-1.61-2.515-.335-2.082-.5-3.942-.5-5.579 0-1.082.126-2.32.376-3.718.164-.938.726-1.407 1.687-1.407.488 0 .898.153 1.234.454.344.304.516.687.516 1.156 0 .367-.062.937-.187 1.719-.118.78-.172 1.382-.172 1.796 0 1.168.035 2.196.109 3.079.082.875.203 1.601.36 2.171.206.094.41.168.609.22.195.054.383.077.562.077.926 0 1.946-.132 3.063-.406 0-.644-.008-1.375-.016-2.187a91.432 91.432 0 0 1-.031-2.094c0-1.707.078-3.18.234-4.422.125-.988.692-1.484 1.703-1.484.489 0 .907.156 1.25.468.352.305.52.688.5 1.157-.156 3.168-.234 4.632-.234 4.39ZM345.607 88.81c-.18 0-.387-.004-.625-.016a7.398 7.398 0 0 0-.61-.03c-.343 0-.741.038-1.187.109.145 3.355.219 5.554.219 6.593 0 .106.004.309.016.61.007.293.015.527.015.703 0 1.918-.605 2.875-1.812 2.875-.461 0-.856-.14-1.188-.422-.367-.305-.547-.676-.547-1.125 0-.3.008-.75.032-1.344.03-.601.046-1.054.046-1.36 0-1-.078-3.155-.234-6.468a35.263 35.263 0 0 1-2.344-.203c-1.043-.113-1.562-.648-1.562-1.61 0-.468.156-.863.469-1.187.32-.32.734-.484 1.234-.484.3 0 1.008.047 2.125.14-.012-.257-.031-.703-.063-1.328a16.153 16.153 0 0 1-.062-1.234c0-.457.172-.844.516-1.156a1.77 1.77 0 0 1 1.234-.47c1.238 0 1.86 1.04 1.86 3.11l-.032 1.031c.52-.07.941-.109 1.266-.109.957 0 1.61.063 1.953.188.664.23 1 .734 1 1.515 0 .48-.164.883-.485 1.203-.324.313-.734.47-1.234.47ZM359.801 91.638v2.531c.008 1.118.016 1.954.016 2.516 0 .18.015.438.047.781.03.344.047.606.047.782 0 .468-.172.851-.516 1.156-.336.3-.746.453-1.234.453-.688 0-1.196-.313-1.516-.938a9.447 9.447 0 0 1-3.313.594c-1.18 0-2.171-.25-2.984-.75-.906-.582-1.445-1.422-1.61-2.515-.335-2.082-.5-3.942-.5-5.579 0-1.082.126-2.32.376-3.718.164-.938.726-1.407 1.687-1.407.488 0 .899.153 1.235.454.343.304.515.687.515 1.156 0 .367-.062.937-.187 1.719-.118.78-.172 1.382-.172 1.796 0 1.168.035 2.196.11 3.079.081.875.202 1.601.359 2.171.207.094.41.168.609.22.195.054.383.077.562.077.926 0 1.946-.132 3.063-.406 0-.644-.008-1.375-.016-2.187a91.432 91.432 0 0 1-.031-2.094c0-1.707.078-3.18.234-4.422.125-.988.692-1.484 1.704-1.484.488 0 .906.156 1.25.468.351.305.519.688.5 1.157-.157 3.168-.235 4.632-.235 4.39ZM372.634 89.857c-.074 1.273-.653 1.906-1.735 1.906-1.043 0-1.562-.539-1.562-1.625l-.063-1.265c-1.875.304-3.218 1.265-4.03 2.89l.015 6.281c0 .48-.164.875-.485 1.188-.324.312-.734.469-1.234.469-.523 0-.922-.168-1.203-.5-.273-.305-.406-.688-.406-1.157v-8.187c0-.25.008-.629.03-1.14.02-.52.032-.907.032-1.157 0-.469.133-.86.406-1.172.282-.312.68-.469 1.204-.469.914 0 1.46.477 1.64 1.422 1.477-1.093 3.113-1.64 4.906-1.64 1.665 0 2.5 1.105 2.5 3.312 0 .43-.007.711-.015.844ZM380.768 99.435c-1.992 0-3.617-.476-4.875-1.422-1.398-1.05-2.094-2.531-2.094-4.437 0-2.102.551-3.883 1.657-5.344 1.226-1.613 2.89-2.422 4.984-2.422 1.445 0 2.648.23 3.61.688 1.257.625 1.89 1.586 1.89 2.875 0 .918-.516 1.73-1.547 2.437-.469.324-1.406.797-2.812 1.422l-4.204 1.86c.395.437.875.765 1.438.984.57.218 1.223.328 1.953.328 1.113 0 2.063-.227 2.844-.688.687-.414 1.238-.625 1.656-.625.863 0 1.297.422 1.297 1.266 0 .95-.695 1.727-2.078 2.328-1.168.5-2.406.75-3.719.75Zm-.328-10.61c-.781 0-1.45.262-2 .782-.543.512-.98 1.281-1.313 2.312.938-.406 1.875-.804 2.813-1.203 1.125-.507 2.02-.976 2.687-1.406-.562-.32-1.292-.484-2.187-.484Zm0 0"/></svg>