<svg xmlns="http://www.w3.org/2000/svg" xmlns:xlink="http://www.w3.org/1999/xlink" width="500" zoomAndPan="magnify" viewBox="0 0 375 374.999991" height="500" preserveAspectRatio="xMidYMid meet" version="1.0"><defs><g/></defs><g fill="#0d6efd" fill-opacity="1"><g transform="translate(128.573178, 329.107258)"><g><path d="M 9.59375 0 L 9.59375 -20.40625 L 22.796875 -20.40625 C 27.066406 -20.40625 30.597656 -21.203125 33.390625 -22.796875 C 36.191406 -24.398438 38.328125 -27.066406 39.796875 -30.796875 C 41.265625 -34.535156 42 -39.46875 42 -45.59375 L 42 -240.796875 C 42 -247.734375 41 -252.929688 39 -256.390625 C 37 -259.859375 34.53125 -262.191406 31.59375 -263.390625 C 28.664062 -264.597656 25.46875 -265.203125 22 -265.203125 L 9.59375 -265.203125 L 9.59375 -285.59375 L 116.40625 -285.59375 C 149.738281 -285.59375 175.003906 -280.125 192.203125 -269.1875 C 209.398438 -258.257812 218 -240.53125 218 -216 C 218 -204 215.734375 -193.734375 211.203125 -185.203125 C 206.671875 -176.671875 200.671875 -169.800781 193.203125 -164.59375 C 185.734375 -159.394531 177.597656 -155.332031 168.796875 -152.40625 L 168.796875 -150.40625 C 180.535156 -148.269531 190.867188 -144.265625 199.796875 -138.390625 C 208.734375 -132.523438 215.734375 -124.59375 220.796875 -114.59375 C 225.867188 -104.59375 228.40625 -92.394531 228.40625 -78 C 228.40625 -51.863281 220.070312 -32.328125 203.40625 -19.390625 C 186.738281 -6.460938 161.203125 0 126.796875 0 Z M 122.796875 -23.59375 C 137.734375 -23.59375 148.929688 -27.726562 156.390625 -36 C 163.859375 -44.269531 167.59375 -58.671875 167.59375 -79.203125 C 167.59375 -92.535156 166.0625 -103.535156 163 -112.203125 C 159.9375 -120.867188 155.203125 -127.332031 148.796875 -131.59375 C 142.398438 -135.863281 133.867188 -138 123.203125 -138 L 98.40625 -138 L 98.40625 -23.59375 Z M 114 -161.203125 C 124.394531 -161.203125 132.859375 -163 139.390625 -166.59375 C 145.929688 -170.195312 150.800781 -175.796875 154 -183.390625 C 157.195312 -190.992188 158.796875 -200.929688 158.796875 -213.203125 C 158.796875 -231.867188 154.992188 -244.664062 147.390625 -251.59375 C 139.796875 -258.53125 128.398438 -262 113.203125 -262 L 98.40625 -262 L 98.40625 -161.203125 Z M 114 -161.203125 "/></g></g></g><g fill="#000000" fill-opacity="1"><g transform="translate(7.918641, 329.107258)"><g><path d="M 9.59375 0 L 9.59375 -20.40625 L 23.203125 -20.40625 C 26.398438 -20.40625 29.460938 -21.070312 32.390625 -22.40625 C 35.328125 -23.738281 37.660156 -26.132812 39.390625 -29.59375 C 41.128906 -33.0625 42 -37.863281 42 -44 L 42 -240.40625 C 42 -247.070312 41.128906 -252.132812 39.390625 -255.59375 C 37.660156 -259.0625 35.328125 -261.53125 32.390625 -263 C 29.460938 -264.46875 26.398438 -265.203125 23.203125 -265.203125 L 9.59375 -265.203125 L 9.59375 -285.59375 L 131.59375 -285.59375 L 131.59375 -265.203125 L 117.59375 -265.203125 C 113.863281 -265.203125 110.597656 -264.46875 107.796875 -263 C 104.992188 -261.53125 102.789062 -259.0625 101.1875 -255.59375 C 99.59375 -252.132812 98.796875 -246.9375 98.796875 -240 L 98.796875 -44.40625 C 98.796875 -38.53125 99.660156 -33.789062 101.390625 -30.1875 C 103.128906 -26.59375 105.398438 -24.0625 108.203125 -22.59375 C 111.003906 -21.132812 114.132812 -20.40625 117.59375 -20.40625 L 131.59375 -20.40625 L 131.59375 0 Z M 9.59375 0 "/></g></g></g></svg>